<svg width="244" height="48" viewBox="0 0 244 48" fill="none" xmlns="http://www.w3.org/2000/svg">
<path d="M86.1678 37.4194C85.4978 37.8661 84.7161 38.2259 83.8228 38.4989C82.9543 38.7719 81.8872 38.9952 80.6217 39.1689C80.3735 37.1589 80.0882 35.2854 79.7656 33.5483C79.4678 31.7865 79.1328 30.1239 78.7606 28.5606C77.1476 28.5606 75.6091 28.6102 74.145 28.7094C72.7058 28.7839 71.341 28.908 70.0506 29.0817C69.5295 30.4217 69.0208 31.6624 68.5245 32.8039C68.0282 33.9454 67.5195 35.0124 66.9984 36.005C66.0554 35.8313 65.1745 35.5335 64.3556 35.1117C63.5615 34.6898 62.9163 34.1811 62.42 33.5856C64.4797 29.8385 66.2167 26.1287 67.6311 22.4561C69.0456 18.7587 70.46 14.1556 71.8745 8.64667C72.8422 8.67148 73.7108 8.73352 74.48 8.83278C75.2493 8.90722 76.0806 9.0437 76.9739 9.24222C79.2072 13.1381 81.0684 17.3815 82.5572 21.9722C84.071 26.5381 85.2745 31.6872 86.1678 37.4194ZM74.3311 15.1233C73.8845 16.91 73.413 18.647 72.9167 20.3344C72.4452 22.0219 71.9489 23.6348 71.4278 25.1733C72.5693 25.0244 73.6611 24.9128 74.7034 24.8383C75.7456 24.7391 76.763 24.677 77.7556 24.6522C77.2593 22.9152 76.7258 21.2526 76.155 19.6644C75.5843 18.0763 74.9763 16.5626 74.3311 15.1233ZM92.5854 30.2728C92.5854 31.0669 92.5978 31.9974 92.6227 33.0644C92.6723 34.1067 92.7219 35.0372 92.7715 35.8561C92.2256 36.0298 91.506 36.1663 90.6127 36.2656C89.7441 36.3896 88.9253 36.4517 88.156 36.4517C87.883 33.8709 87.6225 30.4713 87.3743 26.2528C87.151 22.0343 87.0393 18.4733 87.0393 15.57C87.486 15.3467 88.0815 15.173 88.826 15.0489C89.5953 14.9 90.3769 14.8256 91.171 14.8256C91.5184 14.8256 91.8782 14.8504 92.2504 14.9C92.6227 14.9248 93.0197 14.9744 93.4415 15.0489C93.3919 15.4707 93.3299 15.9794 93.2554 16.575C93.2058 17.1706 93.1562 17.853 93.1065 18.6222C93.851 17.4311 94.6823 16.5378 95.6004 15.9422C96.5186 15.3467 97.5236 15.0489 98.6154 15.0489C100.278 15.0489 101.506 15.6569 102.3 16.8728C103.119 18.0639 103.529 19.8754 103.529 22.3072C103.529 24.218 103.367 26.4141 103.045 28.8956C102.747 31.3522 102.425 33.263 102.077 34.6278C101.333 34.603 100.501 34.5409 99.5832 34.4417C98.6899 34.3424 97.7345 34.1935 96.7171 33.995C97.139 31.6872 97.4615 29.5407 97.6849 27.5556C97.9082 25.5704 98.0199 23.8581 98.0199 22.4189C98.0199 21.327 97.8834 20.5454 97.6104 20.0739C97.3375 19.6024 96.9032 19.3667 96.3077 19.3667C95.6625 19.3667 95.0297 19.7265 94.4093 20.4461C93.789 21.1409 93.2554 22.1087 92.8088 23.3494C92.7343 24.4909 92.6723 25.6696 92.6227 26.8856C92.5978 28.0767 92.5854 29.2057 92.5854 30.2728ZM121.917 35.9678C121.396 36.1415 120.714 36.278 119.87 36.3772C119.051 36.5013 118.319 36.5633 117.674 36.5633C117.575 35.9926 117.475 35.3474 117.376 34.6278C117.302 33.8833 117.215 33.0644 117.115 32.1711C116.594 33.5111 115.924 34.5037 115.105 35.1489C114.311 35.7941 113.331 36.1167 112.165 36.1167C110.08 36.1167 108.455 35.2854 107.289 33.6228C106.147 31.9354 105.577 29.6276 105.577 26.6994C105.577 23.2254 106.42 20.4461 108.108 18.3617C109.795 16.2772 112.053 15.235 114.882 15.235C115.081 15.235 115.292 15.2474 115.515 15.2722C115.738 15.297 115.949 15.3219 116.148 15.3467C116.123 13.2622 116.098 11.7981 116.073 10.9544C116.073 10.1107 116.073 9.35389 116.073 8.68389C116.52 8.46056 117.115 8.28685 117.86 8.16278C118.629 8.01389 119.398 7.93944 120.168 7.93944C120.54 7.93944 120.912 7.96426 121.284 8.01389C121.657 8.06352 122.029 8.12555 122.401 8.2C122.203 9.88741 122.054 12.5054 121.954 16.0539C121.855 19.6024 121.805 24.5778 121.805 30.98C121.805 31.8485 121.805 32.655 121.805 33.3994C121.83 34.1439 121.868 35 121.917 35.9678ZM111.011 26.0294C111.011 28.0146 111.247 29.5407 111.718 30.6078C112.19 31.6748 112.847 32.2083 113.691 32.2083C114.411 32.2083 115.031 31.7493 115.552 30.8311C116.073 29.8881 116.445 28.5481 116.669 26.8111C116.57 24.95 116.483 23.3867 116.408 22.1211C116.359 20.8556 116.309 19.6644 116.259 18.5478C116.011 18.523 115.813 18.5106 115.664 18.5106C115.54 18.4857 115.403 18.4733 115.254 18.4733C113.964 18.4733 112.934 19.1433 112.165 20.4833C111.396 21.8233 111.011 23.672 111.011 26.0294ZM129.782 7.08333C130.378 7.10815 130.924 7.17018 131.42 7.26944C131.916 7.3687 132.326 7.50518 132.648 7.67889C132.425 8.2 132.177 8.90722 131.904 9.80055C131.631 10.6939 131.42 11.5376 131.271 12.3317C130.576 12.4309 129.844 12.5054 129.075 12.555C128.306 12.5798 127.474 12.5798 126.581 12.555C126.457 12.158 126.358 11.7609 126.283 11.3639C126.234 10.9669 126.209 10.5698 126.209 10.1728C126.209 9.72611 126.246 9.29185 126.32 8.87C126.395 8.44815 126.494 8.07592 126.618 7.75333C127.09 7.53 127.574 7.3687 128.07 7.26944C128.591 7.14537 129.162 7.08333 129.782 7.08333ZM125.539 16.3517C126.06 16.0539 126.643 15.8306 127.288 15.6817C127.958 15.508 128.665 15.4211 129.41 15.4211C129.757 15.4211 130.105 15.4459 130.452 15.4956C130.824 15.5204 131.184 15.57 131.532 15.6444C131.01 17.6296 130.589 20.3841 130.266 23.9078C129.943 27.4315 129.782 31.0669 129.782 34.8139C129.385 34.9876 128.889 35.1241 128.293 35.2233C127.722 35.3474 127.127 35.4094 126.507 35.4094C126.234 35.4094 125.985 35.397 125.762 35.3722C125.564 35.3474 125.377 35.3226 125.204 35.2978C124.807 31.8981 124.633 28.5481 124.683 25.2478C124.757 21.9474 125.042 18.982 125.539 16.3517ZM138.412 27.2206C138.412 29.0072 138.461 30.6326 138.56 32.0967C138.66 33.5359 138.809 34.9504 139.007 36.34C138.362 36.5633 137.655 36.7246 136.885 36.8239C136.141 36.9231 135.248 36.9728 134.205 36.9728C133.883 34.8387 133.647 32.7294 133.498 30.645C133.374 28.5606 133.312 26.3024 133.312 23.8706C133.312 21.1161 133.399 18.1383 133.573 14.9372C133.771 11.7113 134.019 9.19259 134.317 7.38111C135.186 7.3563 136.253 7.44315 137.518 7.64167C138.809 7.81537 139.752 8.0387 140.347 8.31167C139.95 10.0983 139.59 12.3069 139.268 14.9372C138.945 17.5428 138.709 20.0863 138.56 22.5678C139.677 21.5007 140.781 20.2972 141.873 18.9572C142.965 17.6172 144.317 15.8057 145.93 13.5228C146.625 13.8702 147.32 14.3541 148.015 14.9744C148.71 15.5948 149.256 16.2152 149.653 16.8356C148.586 18.2252 147.432 19.5404 146.191 20.7811C144.95 21.997 143.461 23.275 141.724 24.615C142.742 25.8309 143.908 26.9972 145.223 28.1139C146.563 29.2057 148.238 30.4093 150.248 31.7244C149.38 32.8163 148.623 33.6228 147.978 34.1439C147.332 34.665 146.662 35.0372 145.968 35.2606C144.578 34.0943 143.288 32.8659 142.097 31.5756C140.905 30.2604 139.702 28.7219 138.486 26.96L138.412 26.9972C138.412 27.022 138.412 27.0593 138.412 27.1089C138.412 27.1337 138.412 27.1709 138.412 27.2206ZM167.018 21.935C167.018 23.5231 166.795 25.682 166.348 28.4117C165.926 31.1165 165.393 33.7469 164.747 36.3028C164.028 36.3028 163.283 36.2531 162.514 36.1539C161.745 36.0794 161.038 35.9554 160.392 35.7817C160.492 35.2606 160.554 34.8759 160.579 34.6278C160.628 34.3796 160.678 34.1563 160.727 33.9578C160.206 34.2556 159.623 34.4789 158.978 34.6278C158.333 34.7767 157.65 34.8511 156.931 34.8511C155.02 34.8511 153.481 34.3672 152.315 33.3994C151.174 32.4069 150.603 31.0917 150.603 29.4539C150.603 27.7417 151.298 26.4637 152.687 25.62C154.102 24.7515 156.199 24.3172 158.978 24.3172C159.499 24.3172 159.958 24.3296 160.355 24.3544C160.777 24.3544 161.211 24.3669 161.658 24.3917C161.658 24.2924 161.658 24.2056 161.658 24.1311C161.658 24.0319 161.658 23.9326 161.658 23.8333C161.658 21.5752 161.472 19.9622 161.1 18.9944C160.727 18.0267 160.132 17.5428 159.313 17.5428C158.494 17.5428 157.799 17.9894 157.229 18.8828C156.658 19.7761 156.36 20.9052 156.335 22.27C155.119 22.2452 154.114 22.0094 153.32 21.5628C152.526 21.0913 151.955 20.4461 151.608 19.6272C152.005 18.188 152.973 16.972 154.511 15.9794C156.05 14.962 157.824 14.4533 159.834 14.4533C162.191 14.4533 163.978 15.0861 165.194 16.3517C166.41 17.6172 167.018 19.4783 167.018 21.935ZM156.186 29.7889C156.186 30.5085 156.385 31.0669 156.782 31.4639C157.204 31.8609 157.787 32.0594 158.531 32.0594C159.003 32.0594 159.449 31.9974 159.871 31.8733C160.293 31.7493 160.715 31.5631 161.137 31.315C161.261 30.4217 161.36 29.6152 161.435 28.8956C161.509 28.1759 161.559 27.4811 161.584 26.8111C159.772 26.7863 158.42 27.022 157.526 27.5183C156.633 27.9898 156.186 28.7467 156.186 29.7889ZM190.719 35.1489C190.123 36.0174 189.441 36.7494 188.672 37.345C187.902 37.9654 186.997 38.4989 185.954 38.9456C184.565 36.2656 183.163 33.9702 181.748 32.0594C180.359 30.1239 178.684 28.1759 176.723 26.2156C176.45 26.4141 176.215 26.5878 176.016 26.7367C175.818 26.8856 175.619 27.022 175.421 27.1461C175.47 28.908 175.557 30.5954 175.681 32.2083C175.805 33.8213 175.979 35.4715 176.202 37.1589C175.706 37.3078 174.962 37.4319 173.969 37.5311C173.001 37.6552 172.108 37.7172 171.289 37.7172C170.768 34.4913 170.383 31.3522 170.135 28.3C169.887 25.223 169.763 21.9846 169.763 18.585C169.763 17.1954 169.788 15.7685 169.837 14.3044C169.912 12.8156 169.999 11.277 170.098 9.68889C170.644 9.41593 171.239 9.205 171.884 9.05611C172.53 8.88241 173.187 8.79555 173.857 8.79555C174.354 8.79555 174.825 8.83278 175.272 8.90722C175.743 8.95685 176.19 9.0437 176.612 9.16778C176.239 11.277 175.954 13.4483 175.756 15.6817C175.557 17.915 175.433 20.198 175.383 22.5306C177.195 20.7439 178.733 18.8704 179.999 16.91C181.289 14.9496 182.679 12.3069 184.168 8.98167C184.987 9.25463 185.756 9.66407 186.476 10.21C187.22 10.7311 187.94 11.4011 188.634 12.22C187.394 14.5278 186.128 16.5502 184.838 18.2872C183.547 19.9994 182.121 21.5876 180.557 23.0517C182.592 24.7887 184.354 26.563 185.843 28.3744C187.357 30.1859 188.982 32.4441 190.719 35.1489ZM189.12 26.2156C189.12 22.8159 190.013 20.0491 191.8 17.915C193.611 15.7561 195.944 14.6767 198.797 14.6767C201.006 14.6767 202.73 15.3839 203.971 16.7983C205.237 18.188 205.87 20.1235 205.87 22.605C205.87 26.228 205.001 29.2678 203.264 31.7244C201.527 34.1563 199.182 35.3722 196.229 35.3722C193.996 35.3722 192.246 34.5409 190.981 32.8783C189.74 31.2157 189.12 28.9948 189.12 26.2156ZM200.286 24.4661C200.286 22.2824 200.063 20.6694 199.616 19.6272C199.17 18.585 198.487 18.0639 197.569 18.0639C196.725 18.0639 196.006 18.7711 195.41 20.1856C194.839 21.5752 194.554 23.3246 194.554 25.4339C194.554 27.295 194.802 28.8583 195.298 30.1239C195.82 31.3894 196.514 32.0222 197.383 32.0222C198.202 32.0222 198.884 31.2778 199.43 29.7889C200.001 28.2752 200.286 26.5009 200.286 24.4661ZM223.467 35.9678C222.946 36.1415 222.263 36.278 221.42 36.3772C220.601 36.5013 219.869 36.5633 219.224 36.5633C219.124 35.9926 219.025 35.3474 218.926 34.6278C218.851 33.8833 218.765 33.0644 218.665 32.1711C218.144 33.5111 217.474 34.5037 216.655 35.1489C215.861 35.7941 214.881 36.1167 213.715 36.1167C211.63 36.1167 210.005 35.2854 208.839 33.6228C207.697 31.9354 207.126 29.6276 207.126 26.6994C207.126 23.2254 207.97 20.4461 209.657 18.3617C211.345 16.2772 213.603 15.235 216.432 15.235C216.63 15.235 216.841 15.2474 217.065 15.2722C217.288 15.297 217.499 15.3219 217.697 15.3467C217.673 13.2622 217.648 11.7981 217.623 10.9544C217.623 10.1107 217.623 9.35389 217.623 8.68389C218.07 8.46056 218.665 8.28685 219.41 8.16278C220.179 8.01389 220.948 7.93944 221.717 7.93944C222.09 7.93944 222.462 7.96426 222.834 8.01389C223.206 8.06352 223.579 8.12555 223.951 8.2C223.752 9.88741 223.603 12.5054 223.504 16.0539C223.405 19.6024 223.355 24.5778 223.355 30.98C223.355 31.8485 223.355 32.655 223.355 33.3994C223.38 34.1439 223.417 35 223.467 35.9678ZM212.561 26.0294C212.561 28.0146 212.797 29.5407 213.268 30.6078C213.74 31.6748 214.397 32.2083 215.241 32.2083C215.96 32.2083 216.581 31.7493 217.102 30.8311C217.623 29.8881 217.995 28.5481 218.219 26.8111C218.119 24.95 218.032 23.3867 217.958 22.1211C217.908 20.8556 217.859 19.6644 217.809 18.5478C217.561 18.523 217.362 18.5106 217.214 18.5106C217.09 18.4857 216.953 18.4733 216.804 18.4733C215.514 18.4733 214.484 19.1433 213.715 20.4833C212.945 21.8233 212.561 23.672 212.561 26.0294ZM231.704 22.6422C232.2 22.7911 232.697 22.9028 233.193 22.9772C233.714 23.0517 234.198 23.0889 234.645 23.0889C234.918 23.0889 235.191 23.0765 235.464 23.0517C235.736 23.0269 235.923 23.002 236.022 22.9772C236.196 22.332 236.32 21.7365 236.394 21.1906C236.493 20.6198 236.543 20.1111 236.543 19.6644C236.543 18.92 236.431 18.3741 236.208 18.0267C235.985 17.6793 235.625 17.5056 235.129 17.5056C234.434 17.5056 233.776 17.977 233.156 18.92C232.535 19.8381 232.051 21.0789 231.704 22.6422ZM237.734 28.1883C238.454 28.3124 239.186 28.573 239.93 28.97C240.675 29.367 241.295 29.8137 241.791 30.31C241.32 31.6996 240.278 32.9404 238.665 34.0322C237.052 35.0993 235.215 35.6328 233.156 35.6328C230.798 35.6328 228.962 34.8759 227.647 33.3622C226.332 31.8237 225.674 29.7517 225.674 27.1461C225.674 23.8457 226.654 20.9176 228.615 18.3617C230.6 15.7809 232.908 14.4906 235.538 14.4906C237.374 14.4906 238.826 14.9993 239.893 16.0167C240.985 17.0093 241.531 18.3493 241.531 20.0367C241.531 20.8307 241.444 21.6869 241.27 22.605C241.121 23.5231 240.91 24.3544 240.637 25.0989C239.992 25.3967 239.198 25.62 238.255 25.7689C237.312 25.893 236.146 25.955 234.756 25.955C234.186 25.955 233.602 25.9178 233.007 25.8433C232.436 25.7689 231.853 25.6572 231.257 25.5083C231.233 25.9054 231.208 26.2031 231.183 26.4017C231.183 26.6002 231.183 26.7863 231.183 26.96C231.183 28.6474 231.431 29.975 231.927 30.9428C232.449 31.9106 233.156 32.3944 234.049 32.3944C234.744 32.3944 235.451 31.9602 236.171 31.0917C236.915 30.2231 237.436 29.2554 237.734 28.1883Z" fill="#111624"/>
<circle cx="15.8051" cy="23.7309" r="15.8051" fill="#476D20" fill-opacity="0.792157"/>
<circle cx="41.4355" cy="23.7309" r="16.7357" fill="#FE602F" stroke="white" stroke-width="1.86111"/>
</svg>
