<svg width="244" height="49" viewBox="0 0 244 49" fill="none" xmlns="http://www.w3.org/2000/svg">
<path d="M86.8239 38.0874C86.1539 38.5341 85.3723 38.8939 84.4789 39.1669C83.6104 39.4398 82.5434 39.6632 81.2778 39.8369C81.0297 37.8269 80.7443 35.9533 80.4217 34.2163C80.1239 32.4545 79.7889 30.7919 79.4167 29.2285C77.8037 29.2285 76.2652 29.2782 74.8012 29.3774C73.3619 29.4519 71.9971 29.5759 70.7067 29.7496C70.1856 31.0896 69.6769 32.3304 69.1806 33.4719C68.6843 34.6133 68.1756 35.6804 67.6545 36.673C66.7115 36.4993 65.8306 36.2015 65.0117 35.7796C64.2176 35.3578 63.5724 34.8491 63.0762 34.2535C65.1358 30.5065 66.8728 26.7967 68.2873 23.1241C69.7017 19.4267 71.1162 14.8235 72.5306 9.31464C73.4984 9.33945 74.3669 9.40149 75.1362 9.50075C75.9054 9.57519 76.7367 9.71167 77.63 9.91019C79.8634 13.8061 81.7245 18.0494 83.2134 22.6402C84.7271 27.2061 85.9306 32.3552 86.8239 38.0874ZM74.9873 15.7913C74.5406 17.578 74.0691 19.315 73.5728 21.0024C73.1013 22.6898 72.605 24.3028 72.0839 25.8413C73.2254 25.6924 74.3173 25.5807 75.3595 25.5063C76.4017 25.407 77.4191 25.345 78.4117 25.3202C77.9154 23.5832 77.3819 21.9206 76.8112 20.3324C76.2404 18.7443 75.6325 17.2306 74.9873 15.7913ZM93.2416 30.9407C93.2416 31.7348 93.254 32.6654 93.2788 33.7324C93.3284 34.7746 93.378 35.7052 93.4277 36.5241C92.8818 36.6978 92.1621 36.8343 91.2688 36.9335C90.4003 37.0576 89.5814 37.1196 88.8121 37.1196C88.5392 34.5389 88.2786 31.1393 88.0305 26.9207C87.8071 22.7022 87.6955 19.1413 87.6955 16.238C88.1421 16.0146 88.7377 15.8409 89.4821 15.7169C90.2514 15.568 91.033 15.4935 91.8271 15.4935C92.1745 15.4935 92.5343 15.5183 92.9066 15.568C93.2788 15.5928 93.6758 15.6424 94.0977 15.7169C94.048 16.1387 93.986 16.6474 93.9116 17.243C93.8619 17.8385 93.8123 18.5209 93.7627 19.2902C94.5071 18.0991 95.3384 17.2057 96.2566 16.6102C97.1747 16.0146 98.1797 15.7169 99.2716 15.7169C100.934 15.7169 102.162 16.3248 102.957 17.5407C103.775 18.7319 104.185 20.5433 104.185 22.9752C104.185 24.8859 104.024 27.082 103.701 29.5635C103.403 32.0202 103.081 33.9309 102.733 35.2957C101.989 35.2709 101.157 35.2089 100.239 35.1096C99.346 35.0104 98.3906 34.8615 97.3732 34.663C97.7951 32.3552 98.1177 30.2087 98.341 28.2235C98.5643 26.2383 98.676 24.5261 98.676 23.0869C98.676 21.995 98.5395 21.2133 98.2666 20.7419C97.9936 20.2704 97.5593 20.0346 96.9638 20.0346C96.3186 20.0346 95.6858 20.3944 95.0655 21.1141C94.4451 21.8089 93.9116 22.7767 93.4649 24.0174C93.3905 25.1589 93.3284 26.3376 93.2788 27.5535C93.254 28.7446 93.2416 29.8737 93.2416 30.9407ZM122.573 36.6357C122.052 36.8095 121.37 36.9459 120.526 37.0452C119.707 37.1693 118.975 37.2313 118.33 37.2313C118.231 36.6606 118.131 36.0154 118.032 35.2957C117.958 34.5513 117.871 33.7324 117.772 32.8391C117.25 34.1791 116.58 35.1717 115.762 35.8169C114.968 36.462 113.987 36.7846 112.821 36.7846C110.737 36.7846 109.111 35.9533 107.945 34.2907C106.803 32.6033 106.233 30.2956 106.233 27.3674C106.233 23.8933 107.076 21.1141 108.764 19.0296C110.451 16.9452 112.709 15.903 115.538 15.903C115.737 15.903 115.948 15.9154 116.171 15.9402C116.394 15.965 116.605 15.9898 116.804 16.0146C116.779 13.9302 116.754 12.4661 116.729 11.6224C116.729 10.7787 116.729 10.0219 116.729 9.35186C117.176 9.12852 117.772 8.95482 118.516 8.83075C119.285 8.68186 120.055 8.60741 120.824 8.60741C121.196 8.60741 121.568 8.63223 121.94 8.68186C122.313 8.73149 122.685 8.79352 123.057 8.86797C122.859 10.5554 122.71 13.1733 122.61 16.7219C122.511 20.2704 122.462 25.2457 122.462 31.648C122.462 32.5165 122.462 33.323 122.462 34.0674C122.486 34.8119 122.524 35.668 122.573 36.6357ZM111.667 26.6974C111.667 28.6826 111.903 30.2087 112.374 31.2757C112.846 32.3428 113.503 32.8763 114.347 32.8763C115.067 32.8763 115.687 32.4172 116.208 31.4991C116.729 30.5561 117.102 29.2161 117.325 27.4791C117.226 25.618 117.139 24.0546 117.064 22.7891C117.015 21.5235 116.965 20.3324 116.915 19.2157C116.667 19.1909 116.469 19.1785 116.32 19.1785C116.196 19.1537 116.059 19.1413 115.91 19.1413C114.62 19.1413 113.59 19.8113 112.821 21.1513C112.052 22.4913 111.667 24.34 111.667 26.6974ZM130.438 7.7513C131.034 7.77612 131.58 7.83815 132.076 7.93741C132.572 8.03667 132.982 8.17315 133.304 8.34686C133.081 8.86797 132.833 9.57519 132.56 10.4685C132.287 11.3619 132.076 12.2056 131.927 12.9996C131.232 13.0989 130.5 13.1733 129.731 13.223C128.962 13.2478 128.13 13.2478 127.237 13.223C127.113 12.8259 127.014 12.4289 126.939 12.0319C126.89 11.6348 126.865 11.2378 126.865 10.8407C126.865 10.3941 126.902 9.95982 126.977 9.53797C127.051 9.11612 127.15 8.74389 127.274 8.4213C127.746 8.19797 128.23 8.03667 128.726 7.93741C129.247 7.81334 129.818 7.7513 130.438 7.7513ZM126.195 17.0196C126.716 16.7219 127.299 16.4985 127.944 16.3496C128.614 16.1759 129.322 16.0891 130.066 16.0891C130.413 16.0891 130.761 16.1139 131.108 16.1635C131.48 16.1883 131.84 16.238 132.188 16.3124C131.667 18.2976 131.245 21.052 130.922 24.5757C130.599 28.0995 130.438 31.7348 130.438 35.4819C130.041 35.6556 129.545 35.792 128.949 35.8913C128.379 36.0154 127.783 36.0774 127.163 36.0774C126.89 36.0774 126.642 36.065 126.418 36.0402C126.22 36.0154 126.034 35.9906 125.86 35.9657C125.463 32.5661 125.289 29.2161 125.339 25.9157C125.413 22.6154 125.699 19.65 126.195 17.0196ZM139.068 27.8885C139.068 29.6752 139.117 31.3006 139.217 32.7646C139.316 34.2039 139.465 35.6183 139.663 37.008C139.018 37.2313 138.311 37.3926 137.542 37.4919C136.797 37.5911 135.904 37.6407 134.862 37.6407C134.539 35.5067 134.303 33.3974 134.154 31.313C134.03 29.2285 133.968 26.9704 133.968 24.5385C133.968 21.7841 134.055 18.8063 134.229 15.6052C134.427 12.3793 134.675 9.86056 134.973 8.04908C135.842 8.02426 136.909 8.11112 138.174 8.30964C139.465 8.48334 140.408 8.70667 141.003 8.97964C140.606 10.7663 140.246 12.9748 139.924 15.6052C139.601 18.2107 139.365 20.7543 139.217 23.2357C140.333 22.1687 141.437 20.9652 142.529 19.6252C143.621 18.2852 144.974 16.4737 146.587 14.1907C147.281 14.5382 147.976 15.022 148.671 15.6424C149.366 16.2628 149.912 16.8832 150.309 17.5035C149.242 18.8932 148.088 20.2083 146.847 21.4491C145.606 22.665 144.117 23.943 142.38 25.283C143.398 26.4989 144.564 27.6652 145.879 28.7819C147.219 29.8737 148.894 31.0772 150.904 32.3924C150.036 33.4843 149.279 34.2907 148.634 34.8119C147.989 35.333 147.319 35.7052 146.624 35.9285C145.234 34.7622 143.944 33.5339 142.753 32.2435C141.562 30.9283 140.358 29.3898 139.142 27.628L139.068 27.6652C139.068 27.69 139.068 27.7272 139.068 27.7769C139.068 27.8017 139.068 27.8389 139.068 27.8885ZM167.674 22.603C167.674 24.1911 167.451 26.35 167.004 29.0796C166.582 31.7845 166.049 34.4148 165.404 36.9707C164.684 36.9707 163.939 36.9211 163.17 36.8219C162.401 36.7474 161.694 36.6233 161.049 36.4496C161.148 35.9285 161.21 35.5439 161.235 35.2957C161.284 35.0476 161.334 34.8243 161.384 34.6257C160.862 34.9235 160.279 35.1469 159.634 35.2957C158.989 35.4446 158.306 35.5191 157.587 35.5191C155.676 35.5191 154.138 35.0352 152.971 34.0674C151.83 33.0748 151.259 31.7596 151.259 30.1219C151.259 28.4096 151.954 27.1317 153.344 26.288C154.758 25.4195 156.855 24.9852 159.634 24.9852C160.155 24.9852 160.614 24.9976 161.011 25.0224C161.433 25.0224 161.867 25.0348 162.314 25.0596C162.314 24.9604 162.314 24.8735 162.314 24.7991C162.314 24.6998 162.314 24.6006 162.314 24.5013C162.314 22.2432 162.128 20.6302 161.756 19.6624C161.384 18.6946 160.788 18.2107 159.969 18.2107C159.15 18.2107 158.455 18.6574 157.885 19.5507C157.314 20.4441 157.016 21.5732 156.991 22.938C155.775 22.9132 154.77 22.6774 153.976 22.2307C153.182 21.7593 152.611 21.1141 152.264 20.2952C152.661 18.8559 153.629 17.64 155.167 16.6474C156.706 15.63 158.48 15.1213 160.49 15.1213C162.848 15.1213 164.634 15.7541 165.85 17.0196C167.066 18.2852 167.674 20.1463 167.674 22.603ZM156.842 30.4569C156.842 31.1765 157.041 31.7348 157.438 32.1319C157.86 32.5289 158.443 32.7274 159.187 32.7274C159.659 32.7274 160.106 32.6654 160.527 32.5413C160.949 32.4172 161.371 32.2311 161.793 31.983C161.917 31.0896 162.016 30.2832 162.091 29.5635C162.165 28.8439 162.215 28.1491 162.24 27.4791C160.428 27.4543 159.076 27.69 158.182 28.1863C157.289 28.6578 156.842 29.4146 156.842 30.4569ZM191.375 35.8169C190.779 36.6854 190.097 37.4174 189.328 38.013C188.559 38.6333 187.653 39.1669 186.611 39.6135C185.221 36.9335 183.819 34.6382 182.404 32.7274C181.015 30.7919 179.34 28.8439 177.379 26.8835C177.107 27.082 176.871 27.2557 176.672 27.4046C176.474 27.5535 176.275 27.69 176.077 27.8141C176.126 29.5759 176.213 31.2633 176.337 32.8763C176.461 34.4893 176.635 36.1395 176.858 37.8269C176.362 37.9757 175.618 38.0998 174.625 38.1991C173.657 38.3232 172.764 38.3852 171.945 38.3852C171.424 35.1593 171.039 32.0202 170.791 28.968C170.543 25.8909 170.419 22.6526 170.419 19.253C170.419 17.8633 170.444 16.4365 170.493 14.9724C170.568 13.4835 170.655 11.945 170.754 10.3569C171.3 10.0839 171.895 9.87297 172.541 9.72408C173.186 9.55038 173.843 9.46352 174.513 9.46352C175.01 9.46352 175.481 9.50075 175.928 9.57519C176.399 9.62482 176.846 9.71167 177.268 9.83575C176.896 11.945 176.61 14.1163 176.412 16.3496C176.213 18.583 176.089 20.8659 176.039 23.1985C177.851 21.4119 179.389 19.5383 180.655 17.578C181.945 15.6176 183.335 12.9748 184.824 9.64963C185.643 9.9226 186.412 10.332 187.132 10.878C187.876 11.3991 188.596 12.0691 189.291 12.888C188.05 15.1957 186.784 17.2182 185.494 18.9552C184.204 20.6674 182.777 22.2556 181.213 23.7196C183.248 25.4567 185.01 27.2309 186.499 29.0424C188.013 30.8539 189.638 33.112 191.375 35.8169ZM189.776 26.8835C189.776 23.4839 190.669 20.717 192.456 18.583C194.267 16.4241 196.6 15.3446 199.453 15.3446C201.662 15.3446 203.387 16.0519 204.627 17.4663C205.893 18.8559 206.526 20.7915 206.526 23.273C206.526 26.8959 205.657 29.9357 203.92 32.3924C202.183 34.8243 199.838 36.0402 196.885 36.0402C194.652 36.0402 192.902 35.2089 191.637 33.5463C190.396 31.8837 189.776 29.6628 189.776 26.8835ZM200.942 25.1341C200.942 22.9504 200.719 21.3374 200.272 20.2952C199.826 19.253 199.143 18.7319 198.225 18.7319C197.381 18.7319 196.662 19.4391 196.066 20.8535C195.495 22.2432 195.21 23.9926 195.21 26.1019C195.21 27.963 195.458 29.5263 195.955 30.7919C196.476 32.0574 197.17 32.6902 198.039 32.6902C198.858 32.6902 199.54 31.9457 200.086 30.4569C200.657 28.9432 200.942 27.1689 200.942 25.1341ZM224.123 36.6357C223.602 36.8095 222.92 36.9459 222.076 37.0452C221.257 37.1693 220.525 37.2313 219.88 37.2313C219.78 36.6606 219.681 36.0154 219.582 35.2957C219.507 34.5513 219.421 33.7324 219.321 32.8391C218.8 34.1791 218.13 35.1717 217.311 35.8169C216.517 36.462 215.537 36.7846 214.371 36.7846C212.286 36.7846 210.661 35.9533 209.495 34.2907C208.353 32.6033 207.782 30.2956 207.782 27.3674C207.782 23.8933 208.626 21.1141 210.314 19.0296C212.001 16.9452 214.259 15.903 217.088 15.903C217.287 15.903 217.497 15.9154 217.721 15.9402C217.944 15.965 218.155 15.9898 218.354 16.0146C218.329 13.9302 218.304 12.4661 218.279 11.6224C218.279 10.7787 218.279 10.0219 218.279 9.35186C218.726 9.12852 219.321 8.95482 220.066 8.83075C220.835 8.68186 221.604 8.60741 222.374 8.60741C222.746 8.60741 223.118 8.63223 223.49 8.68186C223.862 8.73149 224.235 8.79352 224.607 8.86797C224.408 10.5554 224.26 13.1733 224.16 16.7219C224.061 20.2704 224.011 25.2457 224.011 31.648C224.011 32.5165 224.011 33.323 224.011 34.0674C224.036 34.8119 224.073 35.668 224.123 36.6357ZM213.217 26.6974C213.217 28.6826 213.453 30.2087 213.924 31.2757C214.396 32.3428 215.053 32.8763 215.897 32.8763C216.617 32.8763 217.237 32.4172 217.758 31.4991C218.279 30.5561 218.651 29.2161 218.875 27.4791C218.775 25.618 218.689 24.0546 218.614 22.7891C218.565 21.5235 218.515 20.3324 218.465 19.2157C218.217 19.1909 218.019 19.1785 217.87 19.1785C217.746 19.1537 217.609 19.1413 217.46 19.1413C216.17 19.1413 215.14 19.8113 214.371 21.1513C213.602 22.4913 213.217 24.34 213.217 26.6974ZM232.36 23.3102C232.856 23.4591 233.353 23.5707 233.849 23.6452C234.37 23.7196 234.854 23.7569 235.301 23.7569C235.574 23.7569 235.847 23.7444 236.12 23.7196C236.393 23.6948 236.579 23.67 236.678 23.6452C236.852 23 236.976 22.4045 237.05 21.8585C237.149 21.2878 237.199 20.7791 237.199 20.3324C237.199 19.588 237.087 19.042 236.864 18.6946C236.641 18.3472 236.281 18.1735 235.785 18.1735C235.09 18.1735 234.432 18.645 233.812 19.588C233.191 20.5061 232.708 21.7469 232.36 23.3102ZM238.39 28.8563C239.11 28.9804 239.842 29.2409 240.586 29.638C241.331 30.035 241.951 30.4817 242.447 30.978C241.976 32.3676 240.934 33.6083 239.321 34.7002C237.708 35.7672 235.871 36.3007 233.812 36.3007C231.454 36.3007 229.618 35.5439 228.303 34.0302C226.988 32.4917 226.33 30.4196 226.33 27.8141C226.33 24.5137 227.31 21.5856 229.271 19.0296C231.256 16.4489 233.564 15.1585 236.194 15.1585C238.03 15.1585 239.482 15.6672 240.549 16.6846C241.641 17.6772 242.187 19.0172 242.187 20.7046C242.187 21.4987 242.1 22.3548 241.926 23.273C241.777 24.1911 241.566 25.0224 241.294 25.7669C240.648 26.0646 239.854 26.288 238.911 26.4369C237.968 26.5609 236.802 26.623 235.412 26.623C234.842 26.623 234.259 26.5857 233.663 26.5113C233.092 26.4369 232.509 26.3252 231.914 26.1763C231.889 26.5733 231.864 26.8711 231.839 27.0696C231.839 27.2682 231.839 27.4543 231.839 27.628C231.839 29.3154 232.087 30.643 232.584 31.6107C233.105 32.5785 233.812 33.0624 234.705 33.0624C235.4 33.0624 236.107 32.6282 236.827 31.7596C237.571 30.8911 238.092 29.9233 238.39 28.8563Z" fill="#111624"/>
<circle cx="16.4613" cy="24.3988" r="15.8051" fill="#AEB684"/>
<circle cx="42.0917" cy="24.3988" r="16.7357" fill="#FE602F" stroke="white" stroke-width="1.86111"/>
</svg>
