<svg width="400" height="17" viewBox="0 0 400 17" fill="none" xmlns="http://www.w3.org/2000/svg">
<path d="M3.81457 0.8999C6.05863 0.691478 9.00057 0.914334 11.2361 1.22022C11.9368 1.31509 11.582 1.73915 12.0657 1.82373C13.0115 1.98862 13.8929 1.78064 14.8278 1.97706C15.1376 2.04423 14.752 2.71595 15.0768 2.771C16.8571 3.06787 18.5408 2.89678 20.3442 3.03958C29.2267 3.74412 37.958 3.9964 46.9493 4.30274C49.9144 4.40318 53.5178 5.01293 56.5801 4.74648C56.9375 4.71477 56.7245 4.12516 56.7925 4.07657C57.859 3.33269 57.5044 4.52295 58.2006 4.68113C60.9657 5.30568 64.0384 5.36016 66.6995 5.13279C67.8316 5.03434 66.6966 3.86316 67.8364 4.52057C67.9155 4.56498 67.6283 5.19108 67.9387 5.25788C68.6427 5.40812 69.978 5.2963 70.5233 5.34595C71.5744 5.4448 71.7479 5.43852 72.7429 5.44573C74.1029 5.46104 75.7199 5.77241 77.1779 5.63067C77.4892 5.59855 77.0772 4.95668 77.5735 4.8475C78.0699 4.7385 79.3854 4.79305 79.8287 4.94439C80.2722 5.09581 80.0833 5.60027 80.1618 5.7159C80.8074 6.69194 82.3282 5.34037 82.5238 5.30696C86.0897 4.73773 89.1511 5.50811 92.4994 5.50634C95.0433 5.50337 97.7584 5.24953 100.18 5.28475C103.061 5.3292 105.504 5.6774 108.304 5.61811C108.599 5.61259 108.253 4.85788 108.614 4.84961C112.448 4.76247 116.253 4.84548 120.074 5.35577C120.457 5.40761 119.963 6.07008 120.345 6.16149C122.686 6.70652 126.393 8.01546 127.784 5.131C129.369 5.24404 131.296 5.36092 132.715 5.94282C133.63 6.31733 132.742 7.0389 133.866 6.73121C134.119 6.66265 133.79 6.03044 134.17 5.97544C135.769 5.74446 137.519 5.95044 139.103 5.6243C139.425 5.55648 139.337 4.99004 139.429 4.88807C140.196 4.06227 141.472 5.42813 141.75 5.52744C143.867 6.26799 145.419 5.97732 147.392 5.99604C147.85 6.0007 147.309 5.2397 147.75 5.21686C150.033 5.10858 152.408 5.17481 154.644 5.51322C155.141 5.59033 154.684 6.23824 154.921 6.30824C155.969 6.60903 156.204 5.38507 157.211 5.64992C157.423 5.70419 157.303 6.25895 157.342 6.31989C157.948 7.27661 158.474 5.92154 158.63 5.89168C160.602 5.48361 161.857 6.89895 163.764 6.6994C163.992 6.6741 163.479 5.97189 164.119 5.94369C168.384 5.75167 172.894 5.94655 177.119 6.51011C177.775 6.59679 177.306 7.1239 177.347 7.18893C178.02 8.205 178.457 6.84425 178.671 6.7931C180.358 6.425 181.935 7.56714 183.084 5.94673C190.235 6.51302 197.354 5.60694 204.447 7.06388C204.537 7.08076 204.376 7.75093 204.555 7.78172C205.373 7.92447 205.822 7.86453 206.142 7.666C206.671 7.33912 206.848 6.63649 207.742 5.84443C208.104 5.52476 209.202 7.06374 209.299 7.17656C209.652 7.59231 209.284 8.58925 209.403 8.6698C210.383 9.30235 210.226 6.00445 211.547 6.00433C211.589 6.00986 211.415 6.61673 211.526 6.67716C211.87 6.86689 212.21 6.62593 212.549 6.83513C213.324 7.31917 213.599 8.92181 214.781 7.99007C214.931 7.86914 214.704 5.99833 215.886 6.08757C216.358 6.12474 218.435 6.09424 219.023 6.21592C219.609 6.33745 219.206 6.93995 219.248 6.96609C220.824 7.76442 220.226 8.09432 221.014 9.27506C221.801 10.4514 221.585 7.64709 221.906 7.33436C222.228 7.02252 223.379 7.6811 223.662 7.90996C223.944 8.13892 223.591 8.52168 223.843 8.65131C225.506 9.49831 224.575 7.26005 225.126 6.81543C226.428 5.76267 227.438 7.84302 228.624 8.04776C228.945 8.10306 228.684 7.62922 228.97 7.58516C230.102 7.41694 230.777 8.06638 232.073 7.47252C232.285 7.37574 233.33 6.12636 234.004 7.04447C234.099 7.17685 233.827 7.69484 234.31 7.81133C235.032 7.98615 236.325 8.10053 237.102 7.92799C237.677 7.80034 237.019 6.94587 237.742 7.21176C238.063 7.33048 237.467 7.82949 238.071 8.01087C238.671 8.19219 240.203 8.17159 240.784 8.15486C241.365 8.13775 241.047 7.48975 241.094 7.44616C241.379 7.19645 242.491 6.88511 242.589 6.88597C247.577 6.81138 252.146 7.90743 256.997 7.55071C257.377 7.52366 257.125 6.84038 257.183 6.82921C258.484 6.54429 257.457 8.35932 258.364 8.96804C258.234 7.58185 258.77 7.83333 259.683 7.6822C260.123 7.60825 259.884 7.07133 259.924 7.01642C260.574 6.20188 261.036 7.25523 261.153 7.47074C261.588 8.26349 262.062 7.32776 262.357 7.85765C262.652 8.38359 261.971 9.16218 262.852 9.15305C263.099 8.65713 262.447 7.35988 263.115 7.15039C265.622 6.35795 270.338 7.37997 272.35 7.48767C274.381 7.59529 275.03 7.50441 276.204 7.68491C278.316 8.01127 277.549 7.04849 278.873 6.60949C280.202 6.17056 279.553 8.53689 279.744 9.04592C279.93 9.55472 280.135 9.03137 280.367 9.3112C280.598 9.59097 280.097 9.93643 280.641 10.0419C281.186 10.1474 282.67 9.24404 282.862 8.71219C283.27 7.58542 282.599 6.40171 284.049 6.81887C284.132 6.84363 283.861 7.46574 284.18 7.52897C286.711 8.0107 289.323 8.04308 291.847 8.46945C292.192 8.52905 291.883 9.22112 292.084 9.26364C294.174 9.70865 293.423 8.54043 294.583 7.24473C294.32 8.97034 294.964 10.0269 296.558 10.0387C297.515 10.0465 297.351 9.2925 297.968 8.76187C298.153 8.60191 298.825 9.12017 298.947 8.76581C299.357 7.60744 298.717 6.30959 300.369 6.82781C300.442 6.85244 300.211 7.4865 300.461 7.52517C302.075 7.77826 302.27 6.56639 303.996 6.42136C305.377 6.3076 307.799 7.04916 309.343 7.17092C309.309 9.11128 310.788 8.66844 311.384 7.33117C312.397 7.38696 313.464 7.31239 314.447 7.49828C314.786 7.56166 314.563 8.12324 314.605 8.18398C315.259 9.13687 315.7 7.8357 315.918 7.78489C318.268 7.29117 320.207 8.27955 322.447 7.31758C322.526 7.28293 322.657 5.9352 323.251 6.91991C323.291 6.98778 322.551 7.60034 323.604 7.64876C324.68 7.6973 326.677 8.42172 328.13 7.79847C328.491 7.64843 329.401 6.55507 330.123 7.41062C330.219 7.52679 330.114 7.91327 330.252 8.12851C330.701 8.81434 330.947 7.45221 331.469 8.61006C331.984 9.76785 333.095 10.6356 334.583 9.83834C334.63 9.81516 334.982 8.73567 335.446 8.75314C336.182 8.78194 337.236 9.00776 338.024 9.00137C338.399 8.99791 338.16 8.32722 338.225 8.31501C340.713 7.94129 342.528 8.54044 345.178 8.80174C345.679 8.85098 347.103 7.93764 348.041 8.66111C349.075 9.45309 347.993 12.7442 350.418 11.9614C351.391 11.6483 352.594 7.47287 354.355 9.63744C357.717 9.10297 360.853 10.2115 364.24 9.44641C364.393 9.41251 364.873 8.24703 365.225 8.26292C365.486 8.27586 365.687 8.41879 365.869 8.56285C366.061 8.70661 366.233 8.85149 366.426 8.86942C368.031 9.03352 369.482 8.56725 371.003 8.63927C371.573 8.66542 371.365 9.22877 372.076 9.25998C372.782 9.29064 373.24 8.54872 374.16 8.9064C374.893 9.179 375.607 10.6946 376.523 10.8705C376.556 9.37502 377.239 9.40528 378.364 9.00928C378.58 8.93244 378.348 8.41222 378.45 8.34902C378.851 8.08031 379.285 8.51115 379.683 8.2186C379.782 8.14833 379.785 7.63763 379.866 7.55136C380.53 6.7984 381.678 7.94529 381.868 8.14495C382.601 8.90327 382.944 8.23837 383.524 8.53629C384.092 8.83415 383.246 9.20989 383.907 9.38994C385.276 9.76237 387.043 9.67494 388.443 9.69286C388.997 9.69688 388.616 9.01668 388.696 9.00143C389.839 8.824 391.03 9.54281 391.633 8.18107C392.479 11.6865 392.332 7.83714 393.984 8.52552C394.113 8.58113 394.302 10.2398 393.794 10.4883C393.302 10.7363 392.542 10.2232 391.85 10.6075C391.661 10.698 390.776 12.2589 390.627 12.3539C389.64 13.0955 389.476 10.6148 389.422 10.4788C388.823 9.01093 387.65 10.6914 387.377 10.8081C385.993 11.3434 384.795 10.9975 383.677 11.3787C382.92 11.6252 382.827 13.2505 382.255 13.2019C380.267 13.0409 379.576 10.7745 377.744 12.7424C377.346 13.162 377.747 14.938 376.302 13.5425C376.218 13.4546 375.176 12.1776 374.547 12.9862C374.469 13.0882 374.472 13.6059 374.368 13.6494C373.676 13.9311 373.257 13.5189 372.507 13.7168C371.745 13.9147 370.881 14.2094 370.035 14.034C369.529 13.9292 368.842 12.9648 368.612 12.7287C367.943 12.0485 367.206 13.1639 366.774 12.3401C366.337 11.5122 367.194 10.2549 366.043 9.71999C366.008 10.8418 365.933 11.9884 365.869 13.1228C365.857 13.3485 365.845 13.5737 365.834 13.7981C363.408 13.7506 360.936 13.3151 358.472 13.3736C358.167 13.3822 358.479 14.1054 358.152 14.1333C356.758 14.2476 355.541 13.7316 354.107 13.9361C352.976 14.0972 351.765 14.8621 350.601 15.0543C349.885 13.5148 348.147 14.0362 346.901 13.8947C346.46 13.8458 346.49 13.4348 346.175 13.3005C344.982 12.8037 345.539 14.1641 345.211 14.3779C343.823 15.2904 343.724 12.2119 342.075 12.2868C341.99 12.2897 340.907 13.9298 340.767 14.0319C339.851 14.6975 340.617 13.4606 340.042 13.3389C338.99 13.1165 338.253 12.724 336.991 13.2036C336.619 13.3457 335.77 14.3677 335.064 13.576C334.972 13.4724 335.024 12.93 334.949 12.8982C333.599 12.3676 333.558 14.0718 332.777 14.6483C331.999 15.2247 330.828 14.0472 330.582 13.7079C329.949 12.8302 331.068 13.3335 331.101 13.2474C331.503 12.2234 330.64 12.399 329.973 12.3118C329.879 10.6407 328.944 10.7402 329.282 12.2282C329.32 12.3907 329.84 12.2354 329.973 12.3118C329.395 13.9508 328.334 14.1598 327.233 12.6267C326.709 11.9082 327.21 11.0714 325.608 11.3762C324.878 11.5138 325.159 12.6646 324.512 12.9777C323.015 13.692 321.158 12.617 319.622 12.7846C319.067 12.8454 319.607 13.4758 319.228 13.5391C318.223 13.709 317.366 13.2356 316.362 13.4767C316.271 13.4994 316.492 14.1589 316.181 14.167C313.794 14.2412 311.789 13.8169 309.294 13.8027C308.111 13.7961 305.994 14.1576 304.749 14.0832C302.618 13.9583 299.984 12.9968 298.161 13.2279C296.977 13.3757 297.235 14.0354 296.726 14.4842C295.744 15.3541 293.992 13.7923 293.755 13.5505C293.748 13.5425 294.78 13.3881 294.23 13.049C293.91 12.3434 293.766 13.5475 293.755 13.5505C293.602 13.3943 291.568 13.2425 291.16 13.3681C290.939 13.4368 291.062 14.0617 290.947 14.0857C288.188 14.642 285.483 14.798 282.686 14.503C282.637 14.4903 282.711 13.7916 282.597 13.7705C281.001 13.4581 279.971 14.312 278.641 14.8182C277.301 15.3242 276.269 15.1532 275.484 13.9527C274.488 14.1028 273.05 13.5709 272.22 13.2483C271.391 12.9256 271.281 14.2859 271.207 14.3127C268.956 15.1712 267.628 14.3912 265.286 14.2677C264.175 14.2067 261.958 14.4018 260.74 14.5494C259.784 14.6683 259.215 14.349 258.334 14.552C258.215 14.5791 258.335 15.1849 258.299 15.2082C257.316 15.9319 257.789 14.4517 257.587 14.187C256.852 13.2246 256.398 12.712 255.133 13.1632C254.838 13.2665 253.996 15.3978 253.468 15.5219C252.782 15.6795 253.042 14.9155 252.322 15.1C252.261 15.1151 252.273 15.5865 251.829 15.5653C249.761 15.4731 247.513 15.1967 245.369 15.242C245.076 15.2464 245.452 15.9945 245.028 16.0131C243.031 16.1 240.868 16.0704 238.929 15.7186C238.452 15.6297 238.752 15.1064 238.648 14.9508C238.013 14.0096 237.108 15.3756 236.959 15.4015C233.429 16.0552 230.703 14.816 227.099 15.402C226.902 15.4364 225.385 16.9004 224.708 15.6432C224.662 15.5596 223.998 14.2734 223.408 15.1519C223.371 15.2069 223.786 15.8691 223.061 15.8011C222.336 15.7332 221.167 16.1743 220.168 15.4463C219.852 15.2169 219.101 13.9339 218.159 14.9555C218.098 15.0268 216.644 17.3373 216.126 15.742C216.042 15.4794 216.132 13.7917 215.006 14.6562C214.79 14.8238 215.181 15.2006 214.614 15.4352C213.746 15.7969 212.588 15.344 211.526 16.0951C211.341 16.2281 210.549 17.3731 209.915 16.5031C209.816 16.3669 210.005 15.8036 209.67 15.7403C208.517 15.5209 207.324 15.6563 206.137 15.6007C205.683 15.5794 205.231 15.5299 204.782 15.4215C204.209 15.2841 204.503 14.3734 203.905 14.1289C203.308 13.8845 202.103 13.649 201.476 14.0648C200.849 14.4809 201.533 15.9331 200.594 16.0486C196.519 16.5506 192.48 15.6965 188.409 15.5697C187.804 15.5508 188.305 16.0705 187.414 16.0799C184.138 16.1167 178.473 16.6009 175.625 15.4957C173.343 14.6105 176.216 13.9388 174.472 13.5782C173.632 13.4061 172.722 15.0935 172.519 15.1466C170.537 15.6854 169.154 14.9371 167.372 15.1657C167.003 15.2132 167.364 15.8974 167.051 15.9303C165.98 16.0484 164.854 15.7426 163.829 15.798C163.37 15.8245 163.454 16.347 163.031 16.3065C162.018 16.2156 161.126 15.9956 160.14 15.5055C160.05 15.4609 160.656 14.8112 159.908 14.7867C158.698 14.7489 157.194 14.2653 155.799 14.7636C155.385 14.9135 155.369 16.1077 154.481 15.2827C154.295 15.1104 154.534 13.6766 153.498 14.9151C153.324 15.1209 151.585 16.7914 150.731 15.7139C150.506 15.4304 149.931 14.2568 149.434 14.441C149.366 14.4704 149.636 15.1119 149.224 15.1744C147.773 15.3832 146.252 15.3143 144.76 15.5147C144.361 15.5695 144.955 16.2334 144.361 16.2938C142.725 16.4611 140.691 16.2915 139.094 16.0832C138.505 16.0052 138.912 15.4555 138.869 15.3957C138.181 14.4223 137.773 15.7358 137.544 15.8123C136.12 16.2705 135.041 15.6532 133.73 15.8161C133.369 15.8594 133.625 16.4858 133.553 16.5416C132.806 17.0871 133.363 15.9625 132.89 15.8383C131.566 15.4869 130.088 15.5369 128.751 15.6166C128.26 15.6468 128.812 16.3731 128.371 16.3919C125.76 16.5163 123.042 16.4462 120.495 16.0453C120.015 15.9685 120.317 15.4093 120.217 15.2816C119.527 14.3878 118.516 15.6065 118.283 15.7225C117.225 16.2525 116.815 15.7579 115.882 15.85C111.322 16.3086 105.688 15.9801 101.385 15.7771C95.7728 15.5158 91.4218 14.9832 86.0713 15.1208C85.7311 15.1288 86.074 15.8728 85.7808 15.8893C81.9974 16.0682 78.2703 15.7772 74.4795 15.9917C74.1683 16.008 74.6168 16.7133 74.1173 16.7632C73.0929 16.8704 71.7941 16.8319 70.7592 16.6067C70.2542 16.4981 70.9316 15.893 70.4233 15.7961C69.2396 15.5691 67.9704 15.5188 66.7538 15.6318C66.2361 15.6814 67.0172 16.4028 66.3442 16.4111C61.7621 16.4823 57.2619 16.6063 52.6301 15.6721C52.3125 15.6079 52.0341 14.1419 51.3593 14.423C51.3084 14.8298 51.3112 15.3084 51.289 15.7433C44.6175 15.9773 38.0156 15.4689 31.3253 15.3902C31.0432 15.3871 31.5306 16.1639 30.9846 16.1617C27.8242 16.1502 24.755 16.3653 21.5221 15.5933C21.2013 15.5178 21.3659 14.1512 20.4206 14.3579C20.2538 14.3956 18.8301 14.5779 18.4621 14.8745C18.4121 14.9192 18.6718 15.5571 18.2131 15.5757C15.5473 15.6725 12.7531 15.5269 10.0919 15.1372C9.66238 15.073 10.1198 14.3938 9.81386 14.3422C7.64372 13.9817 5.28322 14.498 3.2096 13.8813C1.82158 13.4661 2.33546 12.2919 1.59788 11.1362C1.49355 10.9731 0.634039 10.9473 0.589591 10.2749C0.475479 8.58399 0.891801 6.73248 0.720974 4.93016C0.684883 4.54196 -0.466233 4.96008 0.215301 4.02196C0.262914 3.95918 1.09748 3.64782 1.30303 3.32958C1.44614 3.10955 1.18825 2.42569 1.48025 2.14404C1.77222 1.86264 2.09306 2.43589 2.57714 2.10497C3.061 1.76996 2.84825 0.991992 3.81457 0.8999ZM268.513 11.8061C267.748 11.152 267.632 13.5447 268.461 12.973C268.501 12.9426 268.552 11.8382 268.513 11.8061ZM360.968 11.5102C359.965 10.4545 359.258 12.0061 359.979 12.8214C360.696 13.6358 361.272 11.8302 360.968 11.5102ZM371.313 10.7397C370.168 9.90799 369.984 13.3011 371.215 12.6148C371.286 12.576 371.379 10.788 371.313 10.7397ZM5.01838 10.8071C5.00783 10.7753 4.39 10.7444 4.37523 10.7758C4.04624 11.5358 5.28167 11.5972 5.01838 10.8071ZM381.603 9.89149C381.227 9.43317 380.184 9.96456 380.632 10.5346C380.99 10.9933 382.066 10.4617 381.603 9.89149ZM228.656 9.21576C228.644 9.18009 228.201 9.14762 228.21 9.34918C228.239 9.99835 228.855 9.81565 228.656 9.21576ZM399.141 9.66728C396.417 9.6939 394.923 6.85675 397.673 7.12734C398.175 7.17117 396.611 8.04864 397.262 8.28514C397.675 8.43805 398.046 8.31204 398.383 8.12129C398.547 8.02606 398.716 7.91383 398.855 7.8114C398.998 7.71026 399.116 7.60876 399.074 7.57614C399.117 7.53479 399.092 7.49813 398.962 7.68177C398.901 7.77085 398.855 7.93479 398.882 8.01899C398.906 8.10579 398.971 8.09993 399.038 8.02089C399.096 7.94816 399.344 8.08106 399.611 8.19053C399.744 8.25045 399.861 8.40613 399.839 8.61672C399.823 8.82289 399.723 9.02927 399.624 9.19407C399.398 9.50301 399.189 9.66577 399.137 9.67167C399.138 9.67021 399.14 9.66874 399.141 9.66728ZM268.075 8.93164C268.06 8.89998 267.444 8.86937 267.43 8.90073C267.096 9.66003 268.335 9.72214 268.075 8.93164ZM202.807 7.7171C202.773 7.64965 201.349 7.58567 201.303 7.64776C200.559 8.88948 203.437 9.02251 202.807 7.7171ZM309.367 7.2227C310.044 6.45919 310.848 6.37002 311.381 7.33019C310.716 7.27858 310.043 7.2704 309.367 7.2227Z" fill="#A2BF00"/>
</svg>
