<svg width="133" height="17" viewBox="0 0 133 17" fill="none" xmlns="http://www.w3.org/2000/svg">
<path d="M2.54125 0.782993C3.16989 0.604185 4.11874 0.85074 4.84899 1.17165C5.08598 1.27137 4.96003 1.69297 5.11272 1.78058C5.41085 1.95131 5.72876 1.74893 6.0249 1.95026C6.12739 2.01912 5.98706 2.68863 6.09539 2.74547C6.69603 3.05212 7.26245 2.88893 7.86306 3.03934C10.8585 3.78106 13.8222 4.05361 16.8703 4.37733C17.8851 4.48346 19.1199 5.09931 20.1398 4.83736C20.2616 4.8062 20.1918 4.21627 20.2152 4.16778C20.5834 3.42551 20.4568 4.61523 20.6968 4.77444C21.483 5.29031 22.2846 5.4221 23.096 5.3291C23.2611 5.30872 23.4244 5.27758 23.5843 5.23735C23.9649 5.14023 23.5871 3.96773 23.9693 4.62646C23.9959 4.67097 23.8964 5.29673 24.0013 5.36389C24.2385 5.51495 24.6977 5.40466 24.8875 5.45492C25.2552 5.55496 25.3093 5.54884 25.6419 5.55709C26.0965 5.5738 26.6458 5.8868 27.1519 5.74648C27.26 5.71467 27.1189 5.0724 27.2916 4.9637C27.4725 4.85521 27.9023 4.91092 28.0533 5.06266C28.202 5.21448 28.1371 5.71876 28.1632 5.83447C28.3771 6.81108 28.8989 5.46083 28.9665 5.42759C30.2184 4.8615 31.2006 5.63405 32.3735 5.63469C33.2222 5.63344 34.1525 5.38133 34.9874 5.41799C35.952 5.46408 36.7913 5.81359 37.7509 5.75565C37.8502 5.75027 37.7352 4.9954 37.8566 4.9873C39.1445 4.90196 40.4657 4.98657 41.751 5.49815C41.8812 5.55013 41.7121 6.21243 41.8422 6.30397C42.6431 6.84982 43.902 8.15984 44.3771 5.27573C44.9158 5.38919 45.5746 5.50653 46.062 6.08873C46.3703 6.46343 46.0691 7.18482 46.4494 6.87735C46.5353 6.80885 46.4246 6.17657 46.5533 6.12164C47.0952 5.89098 47.6899 6.09726 48.2318 5.77136C48.342 5.70358 48.3127 5.13713 48.344 5.03518C48.6067 4.20949 49.046 5.57553 49.1373 5.67486C49.853 6.41566 50.3796 6.12513 51.0535 6.144C51.2099 6.14869 51.0259 5.38766 51.1765 5.36484C51.9622 5.25673 52.7601 5.32301 53.523 5.66143C53.6925 5.73853 53.5358 6.38644 53.6168 6.45645C53.9741 6.75723 54.0547 5.53326 54.3982 5.7981C54.4706 5.85236 54.4292 6.40712 54.4424 6.46806C54.6483 7.42477 54.8299 6.06967 54.8832 6.03981C55.5545 5.63165 55.9787 7.04692 56.6277 6.8472C56.7053 6.82188 56.531 6.11972 56.7491 6.09146C58.2082 5.89907 59.7342 6.09326 61.1776 6.65592C61.4007 6.74246 61.241 7.26967 61.255 7.33469C61.4829 8.35062 61.6321 6.98977 61.7049 6.93857C62.2793 6.57008 62.8155 7.71183 63.2077 6.09111C65.6434 6.65549 68.0686 5.74677 70.4815 7.20036C70.5122 7.2172 70.4568 7.88745 70.518 7.91815C71.2564 8.29492 71.1151 7.2531 71.6042 5.9793C71.7274 5.65944 72.1007 7.19786 72.1337 7.31063C72.2541 7.7262 72.1285 8.72332 72.1688 8.80381C72.5025 9.43585 72.4498 6.13804 72.9001 6.1372C72.9142 6.14271 72.8547 6.74968 72.8925 6.81005C73.0098 6.99959 73.1263 6.75845 73.241 6.96745C73.5036 7.45107 73.5957 9.05355 73.9995 8.12114C74.0505 8.00013 73.9737 6.12945 74.3767 6.21801C74.5375 6.2549 75.248 6.22317 75.4467 6.34448C75.6453 6.46565 75.5086 7.0684 75.5228 7.09451C76.0574 7.89187 75.8544 8.22214 76.1218 9.40239C76.389 10.5782 76.3159 7.77405 76.4252 7.46112C76.5342 7.14908 76.9265 7.80692 77.0237 8.03559C77.1204 8.26437 76.9995 8.64736 77.0855 8.77683C77.6555 9.62273 77.3364 7.38508 77.5244 6.9401C77.9675 5.88648 78.3108 7.96614 78.7147 8.17007C78.8239 8.22514 78.7349 7.75148 78.8322 7.70722C79.2177 7.53822 79.4478 8.18717 79.8864 7.59238C79.9587 7.49546 80.3158 6.24532 80.5458 7.16293C80.5784 7.29525 80.4855 7.81343 80.6504 7.92957C80.8967 8.10387 81.3398 8.21728 81.6036 8.04415C81.7984 7.91606 81.5755 7.06209 81.8204 7.32743C81.9292 7.44591 81.7273 7.94538 81.9317 8.12629C82.1352 8.30716 82.6542 8.28538 82.8511 8.26819C83.0503 8.25062 82.9415 7.60287 82.9576 7.55924C83.0552 7.30931 83.4372 6.99709 83.4708 6.99788C85.166 6.91932 86.7315 8.01152 88.3736 7.65052C88.5022 7.62313 88.4167 6.94008 88.4363 6.92886C88.8762 6.64278 88.5285 8.45872 88.8363 9.06663C88.7914 7.68056 88.9761 7.93157 89.2903 7.77962C89.4417 7.70528 89.3594 7.16856 89.3732 7.11363C89.5977 6.2985 89.7532 7.35143 89.7933 7.56684C89.9413 8.35919 90.1025 7.42304 90.2029 7.95266C90.3032 8.47832 90.072 9.25753 90.3711 9.24761C90.4551 8.75146 90.2334 7.4548 90.4604 7.2447C91.3086 6.44999 92.9225 7.46759 93.6067 7.57336C94.2921 7.67905 94.5058 7.58753 94.9143 7.7669C95.6442 8.09121 95.3767 7.12918 95.8276 6.68889C96.2785 6.24866 96.0589 8.61562 96.1237 9.12447C96.1871 9.63308 96.2564 9.10953 96.3352 9.38914C96.4137 9.66868 96.2437 10.0146 96.4283 10.1196C96.6134 10.2245 97.1158 9.31971 97.1805 8.78767C97.3195 7.66051 97.0867 6.47746 97.5848 6.89319C97.6134 6.91786 97.5206 7.54024 97.63 7.60315C98.5022 8.08238 99.3789 8.11215 100.239 8.53599C100.359 8.59524 100.252 9.28762 100.321 9.32994C101.044 9.77285 100.785 8.60538 101.179 7.30851C101.09 9.03439 101.309 10.0903 101.848 10.1005C102.172 10.1073 102.116 9.3535 102.324 8.82225C102.386 8.6621 102.613 9.17968 102.658 8.82519C102.798 7.66641 102.578 6.36921 103.145 6.88577C103.17 6.91032 103.091 7.54461 103.177 7.58303C103.729 7.8345 103.796 6.62242 104.384 6.47566C104.835 6.3605 105.679 7.09963 106.208 7.21985C106.197 9.16025 106.696 8.71593 106.895 7.37806C107.232 7.43284 107.601 7.35721 107.941 7.54214C108.057 7.60519 107.981 8.16698 107.995 8.22768C108.219 9.17992 108.369 7.87833 108.443 7.8273C109.247 7.33127 109.887 8.31778 110.669 7.35368C110.696 7.31895 110.74 5.97109 110.945 6.95524C110.958 7.02308 110.706 7.63633 111.065 7.68375C111.264 7.71025 111.561 7.94655 111.864 8.04226C112.121 8.11823 112.383 8.10564 112.607 7.82926C112.729 7.6789 113.037 6.58471 113.279 7.43962C113.311 7.5557 113.276 7.94227 113.323 8.15739C113.473 8.84282 113.555 7.48047 113.73 8.63786C113.894 9.79519 114.298 10.662 114.8 9.86344C114.816 9.84023 114.936 8.76044 115.093 8.77751C115.349 8.8057 115.682 9.03064 115.962 9.02362C116.092 9.01986 116.009 8.34936 116.031 8.3371C116.908 7.96139 117.473 8.55915 118.41 8.81863C118.583 8.86752 119.036 7.95322 119.373 8.67612C119.735 9.46746 119.372 12.7592 120.188 11.975C120.506 11.6614 120.935 7.48525 121.528 9.64903C122.664 9.11308 123.747 10.2207 124.889 9.45569C124.942 9.42179 125.109 8.25634 125.229 8.27226C125.408 8.29816 125.504 8.84297 125.628 8.87893C126.194 9.04335 126.659 8.57762 127.196 8.65062C127.391 8.67716 127.321 9.24035 127.55 9.27208C127.797 9.30331 127.96 8.56178 128.267 8.92043C128.508 9.19382 128.762 10.7103 129.065 10.8875C129.079 9.39216 129.321 9.42338 129.692 9.02954C129.772 8.95315 129.688 8.43245 129.726 8.36947C129.88 8.1016 130.014 8.53335 130.147 8.24174C130.179 8.17171 130.182 7.66102 130.208 7.57494C130.458 6.8236 130.817 7.97387 130.894 8.1743C131.137 8.9351 131.271 8.27167 131.454 8.5721C131.642 8.87262 131.346 9.24426 131.579 9.42758C131.781 9.5948 132.014 9.67332 132.239 9.71395C132.301 9.72429 132.35 9.73196 132.403 9.73877C132.421 9.74174 132.456 9.74572 132.453 9.74719C132.453 9.74737 132.451 9.74852 132.416 9.74294C132.398 9.73926 132.373 9.7365 132.312 9.71536C132.297 9.70998 132.315 9.71795 132.267 9.69781C132.213 9.66812 132.119 9.64762 131.974 9.45917C131.905 9.36625 131.835 9.19774 131.843 9.02304C131.849 8.848 131.923 8.70336 131.985 8.62263C132.117 8.46016 132.196 8.43833 132.245 8.41004C132.357 8.36219 132.324 8.37981 132.341 8.37288C132.349 8.37038 132.356 8.36839 132.362 8.36673C132.446 8.34632 132.416 8.3549 132.417 8.35316C132.34 8.35817 132.208 8.36825 132.097 8.37674C132.034 8.38144 131.973 8.38587 131.914 8.3891C131.713 8.40395 131.923 9.06729 131.896 9.08516C131.539 9.29576 131 8.65713 131.058 10.0309C130.083 6.64771 130.901 10.4075 130.225 9.8457C130.172 9.80004 129.719 8.20124 129.837 7.92219C129.957 7.64322 130.335 8.08839 130.51 7.66503C130.542 7.56618 130.625 5.9669 130.678 5.8635C131.015 5.06057 131.425 7.51498 131.456 7.64706C131.732 8.58178 131.898 8.17461 132.042 7.74674C132.115 7.52144 132.166 7.29101 132.195 7.24842C132.233 7.17923 132.319 7.11649 132.239 7.08404C132.218 7.0822 132.185 7.07993 132.081 7.09875C132.054 7.10392 132.021 7.11082 131.977 7.12253C131.94 7.13362 131.98 7.11813 131.857 7.16038C131.768 7.19485 131.652 7.23233 131.432 7.37507C131.244 7.52478 130.755 7.78631 130.562 8.73101C130.482 9.19241 130.6 9.69501 130.786 10.0201C130.967 10.3455 131.168 10.5241 131.314 10.6396C131.466 10.7569 131.575 10.8147 131.667 10.8605C131.757 10.9044 131.83 10.9313 131.824 10.9293C131.873 10.9489 131.913 10.963 131.949 10.9746C132.019 10.9975 132.068 11.0104 132.107 11.0204C132.39 11.0832 132.321 11.0696 132.351 11.0838C132.373 11.1014 132.353 11.1139 132.34 11.1254C132.267 11.1705 132.163 11.1864 132.069 11.1982C131.872 11.2215 131.688 11.2273 131.479 11.4151C131.245 11.6583 131.177 13.2832 130.998 13.2325C130.338 13.0649 130.111 10.7972 129.477 12.7614C129.341 13.1804 129.476 14.957 128.985 13.5593C128.958 13.4712 128.61 12.1927 128.388 13.0007C128.361 13.1025 128.36 13.6202 128.325 13.6637C128.105 13.9447 127.954 13.532 127.695 13.7293C127.427 13.9265 127.156 14.2207 126.856 14.0448C126.671 13.9397 126.462 12.975 126.38 12.7388C126.152 12.0584 125.895 13.1735 125.745 12.3497C125.597 11.5217 125.877 10.2646 125.505 9.72944C125.49 11.0744 125.458 12.4549 125.435 13.8075C124.598 13.7597 123.757 13.3245 122.929 13.3837C122.825 13.3924 122.931 14.1155 122.82 14.1434C122.344 14.2582 121.926 13.7426 121.444 13.9478C121.067 14.1094 120.629 14.8749 120.249 15.0678C120.018 13.5287 119.403 14.0511 118.984 13.9104C118.838 13.8618 118.848 13.4508 118.743 13.3167C118.346 12.8207 118.532 14.1808 118.422 14.3948C117.952 15.3082 117.891 12.2298 117.342 12.3059C117.314 12.3089 116.96 13.9498 116.91 14.0519C116.596 14.7183 116.858 13.4808 116.661 13.3596C116.303 13.138 116.03 12.7461 115.614 13.2267C115.494 13.3691 115.204 14.3918 114.965 13.6007C114.933 13.4971 114.951 12.9548 114.926 12.923C114.465 12.3935 114.451 14.0978 114.183 14.6749C113.904 15.252 113.519 14.0755 113.435 13.7365C113.222 12.8593 113.597 13.3616 113.608 13.2755C113.742 12.2512 113.454 12.4275 113.23 12.341C113.198 10.6699 112.883 10.7702 112.997 12.258C113.011 12.4205 113.185 12.2646 113.23 12.341C113.034 13.9805 112.688 14.1904 112.296 12.6583C112.129 12.0076 112.258 11.2591 111.864 11.3523C111.826 11.3619 111.782 11.3806 111.732 11.4093C111.49 11.5476 111.584 12.6982 111.369 13.0119C110.878 13.7276 110.223 12.6543 109.694 12.8234C109.511 12.8848 109.689 13.5146 109.564 13.5783C109.233 13.7492 108.937 13.2766 108.597 13.5187C108.566 13.5414 108.641 14.2007 108.535 14.2091C107.723 14.2857 107.028 13.8634 106.193 13.8517C105.793 13.8463 105.04 14.2099 104.638 14.1368C103.924 14.0139 103.013 13.0552 102.39 13.2881C101.991 13.4371 102.078 14.0966 101.906 14.5458C101.575 15.4167 100.981 13.8567 100.9 13.6151C100.898 13.6071 101.247 13.4517 101.061 13.1132C100.952 12.4078 100.904 13.6121 100.9 13.6151C100.848 13.4591 100.144 13.3093 100.003 13.4354C99.9261 13.5043 99.9692 14.129 99.9302 14.1531C99.0148 14.7122 98.073 14.8709 97.1224 14.5787C97.106 14.566 97.1308 13.8672 97.0922 13.8462C96.5515 13.5355 96.2023 14.3903 95.7506 14.8978C95.2986 15.4051 94.9374 15.2352 94.6673 14.0354C94.3244 14.1864 93.8452 13.6559 93.5639 13.3341C93.2839 13.0122 93.2443 14.3726 93.2196 14.3995C92.4521 15.2601 91.9866 14.4814 91.1988 14.3601C90.8216 14.3 90.0681 14.4972 89.654 14.6459C89.327 14.7657 89.1296 14.4468 88.8267 14.6506C88.7857 14.6778 88.827 15.2835 88.8145 15.3068C88.4821 16.0315 88.6422 14.5508 88.5736 14.2863C88.3251 13.3245 88.1716 12.8123 87.7441 13.2646C87.6456 13.3682 87.3574 15.5002 87.177 15.6248C86.9423 15.783 87.0311 15.0188 86.785 15.2038C86.764 15.219 86.7683 15.6904 86.6162 15.6696C85.9055 15.5791 85.1487 15.3046 84.4175 15.3516C84.3178 15.3563 84.4455 16.1041 84.3013 16.1231C83.6261 16.2115 82.8744 16.1836 82.2223 15.8334C82.0607 15.7448 82.1622 15.2213 82.1271 15.0658C81.912 14.125 81.6054 15.4917 81.5548 15.5177C80.3473 16.1742 79.4222 14.9369 78.1944 15.5253C78.1275 15.5599 77.6111 17.0249 77.381 15.7681C77.3653 15.6845 77.1378 14.3988 76.9355 15.2777C76.923 15.3327 77.065 15.9946 76.8167 15.9271C76.5691 15.8597 76.1728 16.3015 75.8334 15.5741C75.726 15.345 75.4725 14.0624 75.1509 15.0846C75.13 15.1559 74.633 17.4673 74.4565 15.8723C74.4279 15.6098 74.4589 13.922 74.0745 14.7872C74.001 14.9549 74.134 15.3314 73.9406 15.5664C73.6433 15.9286 73.2539 15.4763 72.8903 16.228C72.827 16.3611 72.5569 17.5065 72.341 16.6369C72.3072 16.5007 72.3719 15.9373 72.2577 15.8741C71.7147 15.5714 71.1451 15.948 70.5928 15.5578C70.3974 15.4207 70.4979 14.5099 70.2945 14.2657C70.0911 14.0215 69.6811 13.7866 69.4677 14.2027C69.2543 14.619 69.4863 16.0709 69.1669 16.1869C67.7783 16.6906 66.4021 15.8381 65.0164 15.7125C64.8109 15.6938 64.9809 16.2134 64.6781 16.223C63.5594 16.2609 61.6325 16.7465 60.6622 15.6418C59.8848 14.757 60.8645 14.0848 60.2703 13.7245C59.9837 13.5526 59.6723 15.2402 59.6031 15.2933C58.9267 15.8324 58.4617 15.0843 57.852 15.3132C57.726 15.3607 57.8489 16.0449 57.7416 16.0777C57.3753 16.196 56.9913 15.8903 56.6424 15.9458C56.4858 15.9723 56.5142 16.4948 56.3703 16.4543C56.0261 16.3635 55.7223 16.1436 55.3882 15.6536C55.3578 15.6089 55.5641 14.9592 55.3102 14.9347C54.9014 14.8971 54.3831 14.4134 53.9083 14.9118C53.7671 15.0617 53.7602 16.2559 53.4584 15.4309C53.3951 15.2586 53.4775 13.8248 53.124 15.0633C53.0644 15.2691 52.4717 16.9396 52.1841 15.8621C52.1084 15.5785 51.9144 14.4049 51.7433 14.5891C51.7202 14.6185 51.812 15.26 51.6708 15.3224C51.1731 15.5312 50.6537 15.4621 50.1463 15.6624C50.0108 15.7172 50.2117 16.3811 50.0098 16.4415C49.4554 16.6086 48.7647 16.4388 48.2161 16.2303C48.0149 16.1522 48.1547 15.6026 48.1402 15.5427C47.906 14.5692 47.7654 15.8826 47.6874 15.9591C47.2021 16.4171 46.8354 15.7995 46.3918 15.9622C46.2695 16.0054 46.3553 16.6319 46.3309 16.6877C46.0778 17.233 46.2673 16.1085 46.1079 15.9843C45.6551 15.6326 45.1476 15.6822 44.6916 15.7615C44.524 15.7916 44.7112 16.5181 44.5609 16.5367C43.6737 16.6606 42.7505 16.5896 41.8775 16.1878C41.714 16.1108 41.8179 15.5518 41.784 15.424C41.5504 14.5299 41.2054 15.7483 41.1265 15.8643C40.7675 16.3938 40.6304 15.8991 40.3152 15.9908C38.7426 16.4477 36.8315 16.1165 35.3706 15.911C33.4531 15.6465 31.9674 15.111 30.1553 15.2443C30.0413 15.2521 30.1543 15.9964 30.056 16.0126C28.7441 16.1884 27.509 15.8942 26.1933 16.1048C26.0876 16.1208 26.2376 16.8265 26.0679 16.8759C25.7152 16.982 25.3017 16.9423 24.931 16.7158C24.7555 16.6067 24.9934 16.0024 24.8168 15.9049C24.4061 15.6766 23.9724 15.6248 23.5637 15.7363C23.3899 15.7853 23.649 16.5076 23.4235 16.5151C23.2992 16.5205 23.1757 16.5261 23.0531 16.5316C21.5872 16.5928 20.1931 16.6221 18.7475 15.7566C18.6376 15.6919 18.548 14.2254 18.3156 14.5054C18.2962 14.9121 18.2947 15.3907 18.2848 15.8255C16.0094 16.048 13.7497 15.5259 11.4803 15.428C11.3857 15.424 11.547 16.2022 11.3564 16.1984C10.2563 16.1774 9.21954 16.3824 8.11613 15.5971C8.01251 15.5203 8.08043 14.1546 7.74656 14.3571C7.68424 14.3941 7.2014 14.57 7.07473 14.8649C7.05622 14.9094 7.14055 15.5485 6.97572 15.5648C6.06246 15.6489 5.0832 15.4875 4.16458 15.0771C4.02163 15.0097 4.19419 14.3342 4.0867 14.2802C3.33297 13.9017 2.48797 14.397 1.69104 13.738C1.14115 13.2898 1.41823 12.1298 1.21234 10.9539C1.19375 10.8703 1.09371 10.8142 0.986517 10.6893C0.883439 10.5661 0.74068 10.3635 0.79475 10.0305C1.12817 8.37269 1.47171 6.55376 1.76762 4.77564C1.79044 4.68138 1.81632 4.63696 1.92091 4.62843C2.08042 4.66006 2.11775 4.53386 3.08695 5.01972C3.4773 5.18449 4.67004 6.19652 4.97635 7.42911C5.23923 8.48758 5.16122 8.50329 5.23537 8.50747C5.26007 8.50607 5.28796 8.51437 5.31954 8.50029C5.34835 8.47731 5.3964 8.44094 5.40371 8.06909C5.40301 7.87771 5.39155 7.61407 5.30071 7.22679C5.21762 6.84982 4.99985 6.32009 4.77837 5.95794C4.55131 5.56626 4.18302 5.14492 3.91403 4.89836C3.69172 4.68291 3.45979 4.49932 3.24576 4.34997C3.05132 4.22254 2.67735 4.0238 2.39382 3.89934C2.18083 3.7917 2.03094 3.70924 1.97393 3.63551C1.84259 3.48686 1.88064 3.33645 1.8928 3.1769C1.91583 2.95809 1.98774 2.27801 2.01268 1.99744C2.041 1.71751 2.04444 2.29342 2.17106 1.96984C2.30983 1.64244 2.28377 0.862498 2.54125 0.782993ZM92.2969 11.8954C92.0349 11.2421 91.9958 13.6348 92.2794 13.0624C92.2932 13.0319 92.3104 11.9275 92.2969 11.8954ZM123.776 11.5197C123.426 10.4642 123.195 12.016 123.433 12.8311C123.683 13.6454 123.881 11.8396 123.776 11.5197ZM127.3 10.7513C126.908 9.91881 126.841 13.3118 127.264 12.6263C127.288 12.5875 127.322 10.7996 127.3 10.7513ZM2.49998 10.6972C2.49428 10.6653 2.29351 10.6262 2.2782 10.657C2.1303 11.4116 2.56208 11.4905 2.49998 10.6972ZM130.792 9.91993C130.667 9.46035 130.318 9.98892 130.468 10.5602C130.586 11.0198 130.946 10.4916 130.792 9.91993ZM78.7251 9.33804C78.721 9.30238 78.5704 9.27021 78.5733 9.47177C78.5833 10.1209 78.7931 9.9378 78.7251 9.33804ZM128.229 9.04742C129.126 8.93631 130.33 11.5213 129.348 11.453C129.168 11.4419 129.474 10.4945 129.198 10.3065C128.69 9.96546 128.897 11.7331 128.252 10.9327C128.135 10.7859 128.176 9.04757 128.23 9.04323C128.23 9.04463 128.229 9.04602 128.229 9.04742ZM92.1465 9.02137C92.1413 8.98973 91.9306 8.95969 91.9255 8.99105C91.8112 9.75067 92.2357 9.81162 92.1465 9.02137ZM69.9228 7.85434C69.9114 7.78691 69.427 7.72357 69.4112 7.78568C69.1577 9.02773 70.137 9.15947 69.9228 7.85434ZM106.216 7.27161C106.444 6.50741 106.715 6.41744 106.894 7.37709C106.67 7.32614 106.444 7.31863 106.216 7.27161Z" fill="#A2BF00"/>
</svg>
