<svg width="173" height="16" viewBox="0 0 173 16" fill="none" xmlns="http://www.w3.org/2000/svg">
<path d="M1.64346 0.0813584C2.61033 -0.127064 3.87774 0.0957899 4.84096 0.40167C5.14283 0.496538 4.98997 0.920604 5.19836 1.00518C5.60592 1.17007 5.98561 0.962087 6.38837 1.1585C6.52184 1.22567 6.3557 1.89739 6.49565 1.95245C7.26261 2.24931 7.98817 2.07821 8.7651 2.221C12.592 2.92548 16.3538 3.17764 20.2275 3.48369C21.5048 3.58403 23.0575 4.19364 24.3768 3.92705C24.5308 3.89533 24.439 3.30573 24.4683 3.25713C24.9278 2.5132 24.775 3.70348 25.0751 3.86162C26.2661 4.48603 27.5905 4.54034 28.7366 4.31279C29.2243 4.21426 28.7353 3.04316 29.2263 3.70049C29.2604 3.7449 29.1367 4.37101 29.2704 4.43779C29.5737 4.58799 30.1491 4.47607 30.3841 4.52568C30.8371 4.62445 30.912 4.61816 31.3404 4.62529C31.9261 4.64049 32.6228 4.95173 33.2512 4.80986C33.3853 4.77772 33.2077 4.13588 33.4216 4.02666C33.6358 3.91761 34.2022 3.97204 34.3931 4.12334C34.5841 4.27472 34.5028 4.77919 34.5366 4.89482C34.8147 5.87079 35.4699 4.51907 35.5542 4.48564C37.0913 3.91605 38.4094 4.68608 39.8522 4.68388C40.9475 4.68058 42.1187 4.42637 43.1609 4.46123C44.4026 4.50524 45.4549 4.85305 46.6612 4.79326C46.7885 4.78769 46.6393 4.03304 46.7948 4.02471C48.4467 3.93689 50.0871 4.01915 51.7319 4.52861C51.8968 4.58037 51.6843 5.24295 51.8491 5.33427C52.858 5.87879 54.4545 7.18686 55.0538 4.30205C55.7373 4.4147 56.567 4.53108 57.1784 5.11259C57.5727 5.48686 57.1898 6.20867 57.6741 5.90068C57.7833 5.83205 57.6412 5.19992 57.805 5.14482C58.4947 4.91341 59.2481 5.11889 59.9303 4.79228C60.0691 4.72436 60.0312 4.15795 60.0705 4.05596C60.401 3.22993 60.9511 4.5954 61.071 4.69463C61.9842 5.43452 62.651 5.14336 63.5017 5.16142C63.6991 5.16593 63.4657 4.40511 63.6557 4.38213C64.6409 4.27309 65.6615 4.33848 66.6261 4.67607C66.8407 4.75299 66.6434 5.40107 66.7459 5.47099C67.198 5.77139 67.2983 4.54734 67.7319 4.81181C67.8233 4.866 67.7718 5.4208 67.7885 5.48173C68.0495 6.43822 68.2762 5.08294 68.3434 5.05302C69.1925 4.64418 69.7352 6.05902 70.5555 5.85868C70.6537 5.83329 70.4324 5.13129 70.7082 5.10283C72.546 4.90904 74.4897 5.10188 76.3088 5.66337C76.5916 5.74973 76.3897 6.27707 76.4075 6.34208C76.6976 7.35782 76.8853 5.99685 76.9775 5.9456C77.7051 5.57665 78.3847 6.71799 78.879 5.09697C81.9603 5.65951 85.0274 4.74923 88.0832 6.20146C88.1221 6.21828 88.0525 6.88856 88.1299 6.91923C89.0633 7.29558 88.884 6.25385 89.5016 4.97978C89.6572 4.65986 90.1304 6.19808 90.1723 6.31083C90.3249 6.72633 90.1666 7.72352 90.2177 7.80399C90.6404 8.43586 90.5716 5.13807 91.1418 5.13701C91.1597 5.14251 91.0848 5.7495 91.1326 5.80986C91.2813 5.99934 91.4288 5.75814 91.5743 5.96708C91.9073 6.45057 92.0259 8.05301 92.5346 7.1204C92.5989 6.99936 92.5006 5.12872 93.0098 5.21708C93.2128 5.2539 94.1112 5.22184 94.363 5.34306C94.6145 5.46414 94.4418 6.06695 94.4598 6.09306C95.1374 6.89017 94.8804 7.22054 95.22 8.40067C95.5595 9.57634 95.4653 6.77225 95.6037 6.45927C95.7423 6.14718 96.2392 6.80485 96.3613 7.03348C96.4833 7.26221 96.3311 7.64526 96.4396 7.77469C97.1591 8.62036 96.7554 6.38284 96.9925 5.93779C97.5514 4.88398 97.9867 6.9635 98.4984 7.16727C98.6369 7.2223 98.5239 6.74868 98.6472 6.70438C99.1355 6.53523 99.4291 7.1841 99.9846 6.58915C100.076 6.4922 100.525 5.24193 100.815 6.15946C100.856 6.29177 100.739 6.80998 100.948 6.92606C101.258 7.10027 101.819 7.21354 102.153 7.04032C102.399 6.91216 102.117 6.05827 102.427 6.32353C102.565 6.44197 102.309 6.9415 102.569 7.12235C102.827 7.30315 103.486 7.2812 103.737 7.26395C103.987 7.24632 103.85 6.59861 103.871 6.55497C103.993 6.30501 104.474 5.99268 104.516 5.99345C106.659 5.91438 108.635 7.00618 110.721 6.64481C110.885 6.61739 110.776 5.93436 110.801 5.92314C111.361 5.63696 110.919 7.45298 111.311 8.06083C111.254 6.67476 111.485 6.92573 111.88 6.77372C112.07 6.69934 111.967 6.16265 111.984 6.10771C112.266 5.29253 112.463 6.34544 112.513 6.56083C112.7 7.35315 112.904 6.41697 113.031 6.94657C113.158 7.47222 112.865 8.25147 113.244 8.24149C113.35 7.74532 113.069 6.44871 113.356 6.23857C114.441 5.44369 116.466 6.46101 117.338 6.56669C118.208 6.67228 118.489 6.58073 118.997 6.76005C119.913 7.08427 119.577 6.12226 120.146 5.68193C120.716 5.24164 120.439 7.60863 120.521 8.11747C120.601 8.62607 120.689 8.10252 120.789 8.38211C120.889 8.66165 120.673 9.00762 120.908 9.11258C121.143 9.21744 121.785 8.3126 121.868 7.78055C122.044 6.65337 121.755 5.47035 122.376 5.88603C122.412 5.9107 122.296 6.53308 122.433 6.59599C123.52 7.07513 124.649 7.10483 125.735 7.5286C125.884 7.58784 125.751 8.28023 125.838 8.32254C126.743 8.76541 126.419 7.59796 126.915 6.30107C126.804 8.02695 127.078 9.08286 127.765 9.09305C128.178 9.09978 128.107 8.346 128.374 7.81473C128.454 7.65458 128.746 8.17215 128.799 7.81766C128.974 6.65888 128.698 5.36169 129.406 5.87822C129.438 5.90276 129.339 6.53706 129.446 6.57548C130.14 6.82692 130.223 5.61485 130.973 5.46806C131.561 5.35288 132.607 6.09199 133.276 6.2122C133.262 8.1526 133.894 7.70827 134.151 6.3704C134.585 6.42517 135.054 6.34954 135.474 6.53446C135.619 6.59751 135.524 7.15931 135.542 7.22001C135.822 8.17225 136.01 6.87065 136.104 6.81962C137.121 6.32359 137.949 7.31009 138.919 6.34599C138.953 6.31126 139.009 4.9634 139.268 5.94755C139.285 6.01539 138.965 6.62864 139.421 6.67606C139.877 6.72359 140.738 7.44614 141.371 6.82157C141.524 6.67121 141.912 5.57702 142.223 6.43192C142.265 6.54801 142.22 6.93458 142.279 7.1497C142.473 7.83513 142.579 6.47278 142.806 7.63016C143.033 8.7875 143.506 9.65426 144.145 8.85574C144.166 8.83253 144.317 7.75274 144.518 7.76981C144.839 7.79799 145.294 8.02294 145.629 8.0159C145.789 8.01215 145.687 7.34165 145.715 7.32938C146.793 6.95366 147.56 7.5514 148.715 7.81083C148.927 7.85971 149.535 6.94538 149.945 7.66825C150.396 8.45956 149.933 11.7513 150.968 10.9671C151.385 10.6534 151.913 6.47722 152.663 8.6409C154.117 8.10476 155.462 9.21212 156.921 8.44657C156.986 8.41265 157.194 7.24711 157.348 7.26298C157.577 7.28878 157.703 7.83353 157.866 7.86942C158.551 8.03351 159.178 7.56743 159.838 7.63993C160.089 7.66627 160.001 8.22954 160.3 8.26102C160.599 8.29198 160.798 7.55026 161.203 7.90848C161.509 8.18153 161.815 9.69758 162.221 9.8743C162.236 8.37888 162.515 8.40968 163.01 8.01493C163.106 7.93834 163.004 7.41785 163.049 7.35477C163.232 7.08651 163.402 7.51788 163.576 7.22587C163.618 7.15573 163.62 6.64504 163.655 6.55888C163.949 5.80678 164.434 6.95554 164.518 7.15555C164.837 7.91517 164.986 7.25095 165.231 7.55008C165.476 7.84918 165.11 8.22307 165.396 8.40457C165.988 8.77999 166.749 8.69751 167.35 8.72098C167.59 8.72719 167.426 8.04549 167.461 8.03055C167.957 7.85765 168.458 8.58279 168.733 7.22489C169.077 10.7359 169.033 6.88434 169.742 7.58719C169.798 7.64404 169.869 9.30437 169.654 9.54813C169.44 9.79165 169.115 9.27265 168.817 9.65262C168.747 9.74179 168.343 11.2976 168.288 11.3919C167.856 12.1284 167.795 9.64729 167.773 9.51102C167.514 8.04037 167.02 9.71649 166.891 9.8323C166.296 10.363 165.791 10.0141 165.294 10.3928C164.969 10.6377 164.938 12.2629 164.682 12.2132C163.834 12.0487 163.538 9.78151 162.738 11.7473C162.567 12.1666 162.737 13.9429 162.123 12.5462C162.084 12.4581 161.628 11.1803 161.364 11.9885C161.331 12.0905 161.332 12.6081 161.289 12.6516C160.996 12.9329 160.801 12.5205 160.482 12.718C160.164 12.9156 159.781 13.21 159.417 13.0344C159.197 12.9294 158.916 11.9649 158.811 11.7288C158.515 11.0485 158.197 12.1639 158.014 11.3401C157.828 10.5122 158.19 9.25493 157.705 8.72C157.687 10.065 157.646 11.4455 157.617 12.7981C156.553 12.7508 155.506 12.3158 154.438 12.3753C154.306 12.384 154.441 13.107 154.299 13.135C153.701 13.2499 153.178 12.7344 152.557 12.9397C152.077 13.1014 151.55 13.867 151.047 14.0598C150.74 12.5208 149.995 13.0433 149.453 12.9026C149.263 12.854 149.276 12.443 149.141 12.3089C148.632 11.8129 148.871 13.1729 148.731 13.387C148.132 14.3004 148.081 11.2221 147.375 11.2981C147.338 11.3011 146.881 12.942 146.818 13.0442C146.418 13.7105 146.751 12.4731 146.501 12.3518C146.044 12.1303 145.726 11.7384 145.19 12.219C145.034 12.3614 144.658 13.3841 144.355 12.593C144.315 12.4894 144.337 11.9471 144.305 11.9153C143.723 11.3858 143.707 13.0901 143.375 13.6673C143.042 14.2443 142.528 13.0679 142.424 12.7288C142.15 11.8516 142.633 12.3539 142.648 12.2678C142.822 11.2435 142.447 11.4198 142.161 11.3333C142.119 9.66225 141.719 9.76255 141.864 11.2503C141.881 11.4128 142.103 11.2569 142.161 11.3333C141.91 12.9728 141.47 13.1827 140.983 11.6507C140.756 10.9326 140.971 10.0954 140.28 10.4016C139.966 10.5399 140.087 11.6905 139.811 12.0042C139.178 12.7199 138.356 11.6466 137.704 11.8157C137.468 11.8771 137.698 12.5069 137.536 12.5706C137.107 12.7415 136.729 12.2689 136.298 12.511C136.259 12.5337 136.354 13.193 136.22 13.2014C135.204 13.278 134.319 12.8557 133.258 12.844C132.746 12.8387 131.829 13.2023 131.298 13.1292C130.378 13.0064 129.246 12.0476 128.459 12.2805C127.947 12.4296 128.059 13.0891 127.839 13.5383C127.415 14.4093 126.665 12.8492 126.564 12.6077C126.561 12.5997 127.002 12.4442 126.766 12.1057C126.63 11.4004 126.569 12.6046 126.564 12.6077C126.497 12.4516 125.616 12.3019 125.441 12.428C125.346 12.4969 125.399 13.1217 125.349 13.1458C124.171 13.7049 122.99 13.8637 121.794 13.5715C121.773 13.5589 121.805 12.8601 121.756 12.8391C121.064 12.5284 120.62 13.3833 120.05 13.8909C119.479 14.3982 119.026 14.2283 118.688 13.0286C118.258 13.1796 117.64 12.6492 117.285 12.3274C116.929 12.0056 116.879 13.3659 116.848 13.3928C115.873 14.2536 115.309 13.475 114.296 13.3538C113.815 13.2938 112.861 13.4912 112.34 13.6399C111.928 13.7597 111.68 13.4409 111.3 13.6448C111.249 13.672 111.301 14.2777 111.285 14.301C110.862 15.0257 111.065 13.545 110.978 13.2805C110.661 12.3188 110.465 11.8066 109.923 12.2591C109.798 12.3627 109.433 14.4947 109.205 14.6194C108.909 14.7776 109.021 14.0134 108.71 14.1985C108.684 14.2136 108.689 14.6851 108.498 14.6643C107.608 14.574 106.639 14.2997 105.715 14.3469C105.589 14.3516 105.75 15.0994 105.568 15.1184C104.712 15.2071 103.774 15.1794 102.941 14.8294C102.735 14.7408 102.864 14.2172 102.819 14.0618C102.546 13.1211 102.158 14.4879 102.094 14.5139C100.568 15.1707 99.3994 13.9338 97.8435 14.5227C97.7589 14.5573 97.1069 16.0225 96.8161 14.7659C96.7962 14.6823 96.5084 13.3966 96.254 14.2756C96.2382 14.3306 96.4175 14.9925 96.1046 14.9251C95.7917 14.8577 95.2881 15.2997 94.858 14.5725C94.7218 14.3434 94.4 13.0609 93.9938 14.0833C93.9673 14.1546 93.3402 16.4662 93.1164 14.8714C93.0801 14.6088 93.1181 12.9211 92.6333 13.7864C92.5407 13.9542 92.7088 14.3306 92.4648 14.5657C92.0909 14.928 91.5955 14.4759 91.1359 15.2278C91.0558 15.3609 90.7146 16.5064 90.4408 15.637C90.398 15.5008 90.4794 14.9373 90.3349 14.8743C89.6475 14.5718 88.9279 14.9487 88.23 14.5589C87.9828 14.4219 88.1091 13.511 87.8515 13.2669C87.5938 13.0228 87.0746 12.7881 86.805 13.2044C86.5353 13.6208 86.8299 15.0726 86.4259 15.1887C84.6694 15.6933 82.9294 14.8416 81.1755 14.7171C80.9153 14.6984 81.131 15.2179 80.7476 15.2278C79.3343 15.2664 76.8941 15.7535 75.6677 14.6497C74.6851 13.7656 75.9217 13.0925 75.1708 12.7327C74.8084 12.5611 74.4164 14.2489 74.329 14.302C73.4745 14.8418 72.8806 14.0941 72.1115 14.3235C71.9527 14.3711 72.1085 15.0552 71.9733 15.0881C71.5116 15.2068 71.0263 14.9014 70.5852 14.9573C70.3872 14.9839 70.4237 15.5064 70.2416 15.4661C69.8058 15.3756 69.4204 15.156 68.9956 14.6663C68.9569 14.6217 69.218 13.9717 68.8956 13.9475C68.3738 13.9102 67.7261 13.4272 67.1257 13.926C66.9476 14.0761 66.9406 15.2702 66.5577 14.4456C66.4774 14.2733 66.5798 12.8394 66.1338 14.0784C66.0588 14.2843 65.3095 15.9554 64.9418 14.8782C64.8448 14.5947 64.5972 13.4213 64.383 13.6057C64.354 13.6352 64.4703 14.2766 64.2928 14.3391C63.6673 14.5485 63.0116 14.48 62.3689 14.6809C62.1973 14.7358 62.4529 15.3996 62.1972 15.4602C61.4937 15.628 60.6155 15.459 59.9277 15.2512C59.6741 15.1734 59.8494 14.6236 59.831 14.5637C59.5342 13.5905 59.3588 14.9041 59.2603 14.9807C58.6478 15.4394 58.1814 14.8223 57.6168 14.9856C57.461 15.029 57.5715 15.6553 57.5404 15.7112C57.2188 16.2569 57.4584 15.1321 57.2548 15.0081C56.6844 14.657 56.0486 14.7073 55.4717 14.7874C55.2599 14.8177 55.498 15.5439 55.3079 15.5628C54.1825 15.6879 53.0125 15.6184 51.9142 15.218C51.7074 15.1413 51.8375 14.5821 51.7944 14.4544C51.4974 13.5607 51.062 14.7797 50.9618 14.8958C50.5063 15.4259 50.3294 14.9314 49.9271 15.0237C47.9621 15.4833 45.5358 15.1557 43.6809 14.9534C41.2638 14.693 39.3881 14.1609 37.0832 14.2991C36.9367 14.3072 37.0844 15.0511 36.9581 15.0676C35.3277 15.247 33.7225 14.9563 32.0888 15.1712C31.9547 15.1875 32.148 15.8927 31.9328 15.9426C31.4914 16.0499 30.9324 16.0116 30.4861 15.7864C30.2684 15.6779 30.5604 15.0727 30.3413 14.9758C29.8312 14.7489 29.2843 14.6987 28.7603 14.8118C28.5373 14.8614 28.8738 15.5827 28.5839 15.5911C26.6096 15.6626 24.6705 15.7869 22.6753 14.8528C22.5386 14.7886 22.4185 13.3226 22.1277 13.6038C22.1058 14.0106 22.107 14.4892 22.0974 14.9241C19.2233 15.1583 16.3784 14.6501 13.4962 14.5715C13.3747 14.5684 13.5847 15.3452 13.3494 15.343C11.9877 15.3315 10.6654 15.5467 9.27257 14.7747C9.13437 14.6992 9.20527 13.3327 8.79801 13.5393C8.72618 13.577 8.11279 13.7593 7.95421 14.0559C7.93267 14.1007 8.04458 14.7385 7.84692 14.7571C6.6983 14.854 5.49461 14.7083 4.34797 14.3186C4.16292 14.2545 4.35999 13.5753 4.22818 13.5237C3.29321 13.1631 2.27623 13.6795 1.38282 13.0628C0.784799 12.6475 1.0062 11.4734 0.688424 10.3177C0.643477 10.1546 0.273167 10.1288 0.254017 9.45633C0.204853 7.76545 0.38422 5.91394 0.310621 4.11162C0.295072 3.72341 -0.20087 4.14154 0.0927595 3.20342C0.113273 3.14063 0.472832 2.82928 0.561392 2.51104C0.623051 2.29101 0.51194 1.60715 0.637743 1.3255C0.763535 1.0441 0.901764 1.61735 1.11032 1.28643C1.31879 0.951418 1.22713 0.17345 1.64346 0.0813584ZM115.684 10.8889C115.355 10.2356 115.306 12.6284 115.662 12.0559C115.679 12.0254 115.701 10.921 115.684 10.8889ZM155.512 10.511C155.081 9.45564 154.787 11.0075 155.09 11.8225C155.394 12.6367 155.643 10.8309 155.512 10.511ZM159.974 9.74051C159.471 8.90839 159.392 12.3014 159.931 11.6155C159.962 11.5767 160.004 9.78882 159.974 9.74051ZM2.16212 9.98855C2.15757 9.95678 1.89138 9.92581 1.88502 9.9573C1.74327 10.7172 2.27555 10.7786 2.16212 9.98855ZM164.403 8.90164C164.246 8.44266 163.794 8.9725 163.989 9.54324C164.146 10.0024 164.598 9.47259 164.403 8.90164ZM98.5123 8.33524C98.5071 8.29958 98.3162 8.26748 98.3201 8.46903C98.333 9.11818 98.5986 8.93497 98.5123 8.33524ZM171.929 8.86258C170.817 8.73486 170.143 5.93206 171.354 6.24833C171.573 6.30555 170.881 7.14212 171.16 7.39481C171.671 7.85517 172.01 6.09535 172.531 7.03837C172.626 7.21097 171.992 8.87609 171.927 8.86649C171.928 8.86518 171.928 8.86388 171.929 8.86258ZM115.494 8.01493C115.488 7.98329 115.224 7.95329 115.217 7.98465C115.074 8.74429 115.606 8.80517 115.494 8.01493ZM87.3763 6.85575C87.3617 6.78833 86.7486 6.72527 86.7286 6.78739C86.4088 8.02959 87.6483 8.16076 87.3763 6.85575ZM133.287 6.26396C133.575 5.49976 133.92 5.40978 134.149 6.36942C133.863 6.31848 133.575 6.31098 133.287 6.26396Z" fill="#08A5D3"/>
</svg>
